<svg xmlns="http://www.w3.org/2000/svg" width="24" height="24"><path fill="none" d="M0 0h24v24H0z"/><path fill="currentcolor" d="M4 13a2 2 0 0 0 2-2c0-1.1-.9-2-2-2s-2 .9-2 2 .9 2 2 2zm1.13 1.1a6.98 6.98 0 0 0-3.91.48A2.01 2.01 0 0 0 0 16.43V18h4.5v-1.61c0-.83.23-1.61.63-2.29zM20 13a2 2 0 0 0 2-2c0-1.1-.9-2-2-2s-2 .9-2 2 .9 2 2 2zm4 3.43c0-.81-.48-1.53-1.22-1.85a6.95 6.95 0 0 0-3.91-.48c.4.68.63 1.46.63 2.29V18H24v-1.57zm-7.76-2.78a10.44 10.44 0 0 0-8.48 0A2.99 2.99 0 0 0 6 16.39V18h12v-1.61c0-1.18-.68-2.26-1.76-2.74zM8.07 16c.09-.23.13-.39.91-.69a8.25 8.25 0 0 1 6.04 0c.77.3.81.46.91.69H8.07zM12 8c.55 0 1 .45 1 1s-.45 1-1 1-1-.45-1-1 .45-1 1-1m0-2a3 3 0 1 0 0 6 3 3 0 0 0 0-6z"/></svg>
