<svg viewBox="61 61 378 378" xmlns="http://www.w3.org/2000/svg"><path d="m412.4 174.8c0-6.1-1.3-11.6-4-16.2-2.6-4.6-6.5-8.4-11.7-11.4-43.2-24.9-86.5-49.8-129.7-74.7-11.7-6.7-22.9-6.5-34.5.3-17.2 10.1-103.4 59.5-129 74.4-10.6 6.1-15.7 15.5-15.7 27.7v150.4c0 6 1.3 11.3 3.8 15.9 2.6 4.7 6.6 8.7 11.9 11.8 25.7 14.9 111.8 64.2 129 74.4 11.6 6.8 22.9 7.1 34.5.3 43.2-25 86.5-49.8 129.7-74.7 5.4-3.1 9.3-7 11.9-11.8 2.5-4.6 3.8-9.9 3.8-15.9z" fill="#9a4993"/><path d="m250.5 249.5-159.1 91.6c2.6 4.7 6.6 8.7 11.9 11.8 25.7 14.9 111.8 64.2 129 74.4 11.6 6.8 22.9 7.1 34.5.3 43.2-25 86.5-49.8 129.7-74.7 5.4-3.1 9.3-7 11.9-11.8z" fill="#6a1577"/><path d="m203.4 276.6a53.72 53.72 0 0 0 46.6 27.1c20.1 0 37.6-11 46.8-27.4l-46.3-26.8z" fill="#6a1577"/><path d="m412.4 174.8c0-6.1-1.3-11.6-4-16.2l-157.9 90.9 158.1 91.6c2.5-4.6 3.8-9.9 3.8-15.9z" fill="#813084"/><g fill="#fff"><path d="m296.8 276.3a53.74 53.74 0 0 1 -46.8 27.4c-20 0-37.4-10.9-46.6-27.1a53.65 53.65 0 0 1 93-53.5l46.9-27c-18.7-32.2-53.5-53.9-93.4-53.9-59.6 0-107.8 48.3-107.8 107.8 0 19.5 5.2 37.9 14.3 53.7 18.6 32.3 53.6 54.1 93.6 54.1 40.1 0 75.1-21.9 93.7-54.4z"/><g><path d="m345.4 224.5h10.7v51.7h-10.7zm23.7 0h10.7v51.7h-10.7z"/><path d="m336.8 233.2h51.7v10.7h-51.7zm0 23.6h51.7v10.7h-51.7z"/></g></g></svg>