<svg xmlns="http://www.w3.org/2000/svg" xmlns:xlink="http://www.w3.org/1999/xlink" width="117" height="33"><defs><path id="a" d="M.59.17h5.16V6H.59z"/></defs><g fill="none" fill-rule="evenodd"><path fill="#0094D8" d="M43.84 26.34c1.94-.02 4.19-1.2 5.47-2.29a11.12 11.12 0 0 0 3.52-12.03c-.09-.27-.2-.54-.33-.84-.45-1.06-.95-2.27-.6-3.57a4.17 4.17 0 0 1 3.9-2.96h59.7l1-4.64H55.11a8.38 8.38 0 0 0-5.93 2.82 9.05 9.05 0 0 0-1.78 8.94c.61 1.43 2 4.73.18 7.16a5.92 5.92 0 0 1-4.98 2.68H17l-.97 4.73h27.8zm3.56-14.56v-.03.03zM19.63 0l-1 4.6h-4.95l.96-4.6zm-6.1 29.25H8.64l4.72-23.1h4.96z"/><path fill="#0094D8" d="M28.66 12.3c.7-3.32-1.42-4.05-3.22-4.05-2.01 0-3.4 1.36-3.95 1.98h-.05l.35-1.65h-1.84l-2.49 11.67h1.96l1.36-6.36c.67-3.17 2.79-3.88 3.9-3.88 1.92 0 2.28 1.03 1.85 3.06L25 20.25h1.97l1.69-7.94zm6.89-2.09.34-1.63h-1.96l.3-1.45c.2-.94.6-1.36 1.46-1.36.24 0 .55.02.79.04l.37-1.76c-.3-.02-.59-.04-.88-.04-1.92 0-3.2.8-3.58 2.56l-.43 2.01h-1.6L30 10.21h1.6l-2.13 10.04h1.97l2.13-10.04h1.97zm8.12 4.19c-.33 1.57-1.53 4.47-4.34 4.47-2.81 0-2.77-2.9-2.44-4.46.33-1.57 1.53-4.47 4.34-4.47 2.81 0 2.77 2.9 2.44 4.47m-2.08-6.16c-3.73 0-6.1 3.14-6.73 6.16-.64 3 .39 6.15 4.1 6.15 3.74 0 6.1-3.14 6.74-6.15.64-3.02-.39-6.16-4.11-6.16m22.6 11.9L66.67 8.5H64.7l-1.37 6.42c-.36 1.7-1.56 3.88-4.04 3.88-1.27 0-2.12-.64-1.7-2.56l1.64-7.74h-1.96l-1.79 8.38c-.6 2.8 1.3 3.62 3.03 3.62 1.87 0 3.03-.72 4.14-2.08l.04.05-.36 1.7h1.85zm11.15-5.86c-.55 2.56-1.96 4.5-4.1 4.5-1.25 0-3.02-.82-2.36-3.92.4-1.9 1.37-4.96 4.2-4.96 3.03 0 2.58 2.88 2.26 4.38m-1.53-6.14c-2.12 0-3.29 1.32-3.9 1.99h-.05l.36-1.65h-1.86L64.9 24.77h1.96l1.25-5.84h.04c.34.82 1.2 1.56 2.77 1.56 3.97 0 5.92-3.73 6.52-6.52.7-3.28-.53-5.82-3.63-5.82m13.34 6.14c-.55 2.56-1.97 4.5-4.1 4.5-1.26 0-3.02-.82-2.36-3.92.4-1.9 1.36-4.96 4.2-4.96 3.03 0 2.57 2.88 2.26 4.38m-1.53-6.14c-2.12 0-3.3 1.32-3.9 1.99h-.05l.35-1.65h-1.85L76.7 24.77h1.97l1.24-5.84h.05c.33.82 1.2 1.56 2.76 1.56 3.98 0 5.93-3.73 6.52-6.52.7-3.28-.52-5.82-3.62-5.82m13.64 6.16c-.33 1.56-1.53 4.46-4.34 4.46-2.81 0-2.78-2.9-2.44-4.46.33-1.56 1.52-4.46 4.34-4.46 2.8 0 2.77 2.9 2.44 4.46m-2.08-6.16c-3.73 0-6.1 3.15-6.73 6.16-.64 3.01.38 6.16 4.11 6.16 3.72 0 6.09-3.15 6.73-6.16.64-3.01-.39-6.16-4.11-6.16m7.74 5.22a3.85 3.85 0 0 1 3.66-3.12h.73l.44-2.03a1.47 1.47 0 0 0-.5-.07c-1.47 0-2.7.92-3.76 2.28h-.05l.41-1.95H104l-2.48 11.67h1.96l1.44-6.78zm11.23-3.26.34-1.63h-1.87l.7-2.99h-1.97l-.7 3h-1.58l-.34 1.62h1.58l-1.64 7.7c-.3 1.4-.1 2.5 1.83 2.5.2 0 .79-.09 1.51-.16l.33-1.54h-.7c-.4 0-1.17 0-.98-.91l1.61-7.59h1.88zM.98 21.6 0 26.32l7.37-.01.98-4.71zm55.8 9.73c.08.15.15.22.3.3.15.07.22.14.44.14.15 0 .3.08.52.08.14 0 .3 0 .37-.08.14 0 .22-.07.37-.14.07-.08.22-.15.3-.23.06-.07.06-.22.06-.36 0-.15-.07-.23-.14-.37a1.67 1.67 0 0 0-.37-.23c-.15-.07-.3-.14-.45-.14-.14-.08-.36-.08-.51-.15a3.6 3.6 0 0 1-.52-.22c-.15-.08-.3-.15-.44-.3-.15-.14-.22-.3-.37-.44a1.45 1.45 0 0 1-.15-.66c0-.3.08-.6.22-.82.15-.22.3-.44.52-.59.22-.14.44-.22.74-.3.3-.07.59-.07.81-.07.3 0 .6 0 .81.08.3.07.52.15.67.3.22.14.37.36.44.58.15.22.15.52.15.89h-1.26c0-.15 0-.3-.07-.44-.08-.08-.15-.23-.22-.3a.56.56 0 0 0-.37-.15c-.15 0-.3-.07-.45-.07h-.36c-.15 0-.23.07-.3.15l-.22.22c-.07.07-.07.22-.07.37s.07.22.14.37c.08.07.22.14.37.22.15.07.3.15.44.15.15 0 .3.07.37.07l.67.22c.22.08.37.15.52.3.14.14.22.3.3.44.06.15.14.37.14.66 0 .37-.08.67-.22.89-.15.22-.3.44-.6.59-.22.15-.51.3-.73.3-.3.07-.6.07-.81.07-.82 0-1.4-.15-1.85-.52-.37-.3-.59-.81-.59-1.55h1.26c.07.45.07.6.14.74m5.39.07c0 .15.08.23.15.3.07.07.15.15.3.22.07.08.22.08.36.08.22 0 .37-.08.6-.15.14-.15.29-.3.36-.45.08-.14.15-.36.22-.59.08-.22.08-.37.08-.59 0-.3-.08-.51-.22-.66-.08-.15-.3-.22-.67-.22a.96.96 0 0 0-.51.15c-.15.14-.3.29-.37.44a.84.84 0 0 0-.22.59c-.08.22-.08.37-.08.59v.3m-1.03-1.33c.15-.3.3-.6.51-.82.23-.22.45-.44.74-.59.3-.14.67-.22 1.04-.22.3 0 .59 0 .8.08a1.3 1.3 0 0 1 .97.81c.07.22.15.51.15.8 0 .38-.08.75-.15 1.04-.08.3-.3.6-.52.82-.22.22-.44.44-.74.59-.3.14-.66.22-1.03.22-.6 0-1.03-.15-1.4-.45-.37-.3-.52-.73-.52-1.32 0-.37.07-.67.15-.96m7.08-3.1-1.25 5.75h-1.11l1.18-5.75zm.89.95.22-.95h1.18l-.22.95h-1.18zm1.03.6-.88 4.2h-1.1l.88-4.2h1.1z"/><g transform="translate(70 26.88)"><mask id="b" fill="#fff"><use xlink:href="#a"/></mask><path fill="#0094D8" d="M2.43 2.6c-.14.15-.3.23-.37.45-.07.14-.14.37-.22.59-.07.22-.07.37-.07.59 0 .15 0 .22.07.37 0 .15.08.22.15.3l.22.21c.08.08.22.08.37.08.22 0 .44-.08.59-.15.15-.15.3-.3.37-.44.07-.15.22-.37.22-.6.07-.21.07-.36.07-.58 0-.3-.07-.52-.22-.67-.14-.22-.3-.3-.59-.3-.22 0-.44 0-.59.15zm1.04 2.74c-.15.22-.3.36-.52.51-.22.08-.44.15-.74.15-.52 0-.88-.15-1.18-.44-.3-.3-.44-.67-.44-1.18 0-.37.07-.67.14-1.04.08-.3.23-.59.45-.88.22-.3.44-.45.74-.6.29-.14.66-.22 1.03-.22.22 0 .52.08.74.15.22.08.37.3.44.52L4.57.17h1.18L4.5 5.93H3.32l.15-.6z" mask="url(#b)"/></g><path fill="#0094D8" d="m80.03 26.98-1.25 5.75h-1.26l1.26-5.75zm2 1.55-.15.59c.37-.45.89-.67 1.48-.67.8 0 1.25.37 1.25 1.1v.38c0 .07 0 .15-.07.22v.15l-.52 2.43h-1.18l.52-2.43c0-.08 0-.15.07-.3v-.22c0-.15-.07-.22-.15-.3-.14-.07-.22-.14-.37-.14-.14 0-.3 0-.44.07a1.3 1.3 0 0 0-.37.3c-.07.07-.14.22-.22.37-.07.14-.07.3-.15.44l-.44 2.21h-1.18l.89-4.2h1.03zm5.17 0-.15.59c.37-.45.88-.67 1.47-.67.82 0 1.26.37 1.26 1.1v.16c0 .07 0 .14-.08.22 0 .07 0 .15-.07.22v.15l-.52 2.43h-1.18l.52-2.43c0-.08 0-.15.07-.3v-.22c0-.15-.07-.22-.14-.3-.15-.07-.22-.14-.37-.14s-.3 0-.45.07c-.14.08-.22.15-.36.3-.15.14-.15.22-.23.37-.07.14-.14.3-.14.44l-.45 2.21H85.2l.89-4.2h1.1zm4.57 2.87c0 .15.08.23.15.3.07.07.15.15.3.22.07.08.22.08.36.08.23 0 .37-.08.6-.15.14-.15.29-.3.36-.45.08-.14.15-.36.23-.59.07-.22.07-.37.07-.59 0-.3-.07-.51-.22-.66-.15-.15-.37-.22-.67-.22a.96.96 0 0 0-.51.15c-.15.14-.3.29-.37.44-.08.15-.15.37-.22.59-.08.22-.08.37-.08.59-.07.07-.07.22 0 .3m-1.03-1.33c.15-.3.3-.6.52-.82.22-.22.44-.44.73-.59.3-.14.67-.22 1.04-.22.3 0 .59 0 .8.08a1.3 1.3 0 0 1 .97.81c.07.22.15.51.15.8 0 .38-.08.75-.15 1.04-.15.3-.3.6-.52.82-.22.22-.44.44-.74.59-.3.14-.66.22-1.03.22-.6 0-1.03-.15-1.4-.45-.37-.3-.52-.73-.52-1.32-.07-.37 0-.67.15-.96m5.54 2.65-.6-4.2h1.26l.22 3.02 1.55-3.02h1.18l-2.29 4.2zm6.05-1.84c-.15 0-.37 0-.52.07-.07 0-.22 0-.3.07-.07 0-.22.08-.29.08l-.22.22c-.07.07-.07.22-.07.3 0 .14.07.3.22.36.14.08.3.15.44.15.15 0 .3 0 .44-.07.15-.08.22-.15.3-.22.07-.08.14-.22.22-.3.07-.15.07-.22.15-.37l.14-.37c-.14 0-.29.08-.51.08m-1.7-1.7.44-.44c.15-.08.37-.22.6-.22.22-.08.44-.08.66-.08.22 0 .37 0 .59.08.22 0 .37.07.59.14.15.08.3.22.44.3.15.15.15.37.15.59 0 .22 0 .44-.07.74l-.37 1.7c0 .07 0 .14-.08.29v.3c0 .07 0 .14.08.22h-1.19v-.45c-.14.15-.36.3-.58.37-.23.08-.45.15-.74.15-.22 0-.45 0-.6-.07l-.44-.23a.4.4 0 0 1-.22-.36c-.07-.15-.07-.3-.07-.45 0-.37.15-.74.44-.96.3-.22.67-.37 1.18-.44.3 0 .52-.07.74-.07.22 0 .37-.08.52-.08.14 0 .22-.07.3-.14.07-.08.07-.15.07-.3 0-.07 0-.22-.08-.3-.07-.07-.07-.14-.15-.14-.07-.08-.14-.08-.22-.08h-.22c-.22 0-.37.08-.59.15-.22.08-.3.22-.3.44h-1.1c0-.3.07-.51.22-.66m7.23-.66-.14.73h-.81l-.45 2.07v.37c0 .07.08.07.08.07h.73l-.22.89h-1.11c-.14 0-.22-.07-.36-.15-.08-.07-.23-.15-.23-.22-.07-.07-.07-.22-.07-.44v-.15c0-.07 0-.15.07-.22l.45-2.22h-.74l.15-.73h.73l.3-1.26h1.18l-.3 1.26h.74zm1.34 2.87c0 .15.07.23.14.3.08.07.15.15.3.22.07.08.22.08.37.08.22 0 .36-.08.59-.15.14-.15.29-.3.36-.45.08-.14.15-.36.23-.59.07-.22.07-.37.07-.59 0-.3-.07-.51-.22-.66-.15-.15-.37-.22-.67-.22a1 1 0 0 0-.51.15c-.15.14-.3.29-.37.44-.07.15-.15.37-.22.59-.08.22-.08.37-.08.59v.3m-1.03-1.33a2.87 2.87 0 0 1 1.25-1.4c.3-.15.67-.23 1.04-.23.3 0 .59 0 .8.08a1.3 1.3 0 0 1 .97.81c.07.22.15.51.15.8 0 .38-.08.75-.15 1.04-.15.3-.3.6-.52.82-.22.22-.44.44-.74.59-.29.14-.66.22-1.03.22a2.1 2.1 0 0 1-1.4-.45c-.37-.3-.52-.73-.52-1.32 0-.37.08-.67.15-.96m6.64-1.55-.14.73c.14-.3.3-.51.59-.66.29-.15.51-.22.88-.22h.37l-.22 1.1c-.07 0-.15 0-.22-.07h-.22c-.23 0-.45.08-.6.15-.14.07-.29.15-.36.3-.08.14-.22.29-.22.44-.08.14-.15.37-.15.51l-.37 1.85h-1.18l.88-4.2h.96v.07z"/></g></svg>
