<svg xmlns="http://www.w3.org/2000/svg" xml:space="preserve" fill-rule="evenodd" stroke-linejoin="round" stroke-miterlimit="2" clip-rule="evenodd" viewBox="0 0 2250 2250"><path fill="none" d="M0 0h2250v2250H0z"/><path fill="#f1c413" fill-rule="nonzero" d="M1256.61 1130.24c-12.03 1.26-22.25-.51-30.65-5.33-8.4-4.8-13.52-12.63-15.32-23.45l33.52-3.52c1.09 5.72 3.95 8.34 8.59 7.86 1.7-.18 3.1-.74 4.2-1.67 1.1-.93 1.56-2.24 1.38-3.95-.24-2.37-1.72-4.15-4.44-5.35-2.7-1.2-6.86-2.46-12.46-3.79a129.61 129.61 0 0 1-16.68-5 31.15 31.15 0 0 1-11.87-8.37c-3.47-3.85-5.5-9.05-6.1-15.6-.68-6.53.41-12.27 3.3-17.22 2.87-4.94 7.1-8.9 12.68-11.89 5.57-2.98 12-4.85 19.3-5.62 12.31-1.3 22.4.52 30.23 5.44 7.85 4.92 12.5 12.53 13.97 22.81l-33.96 3.57c-.4-2.83-1.32-4.8-2.77-5.89a6.88 6.88 0 0 0-5.03-1.33 4.3 4.3 0 0 0-3.12 1.69 5.29 5.29 0 0 0-.89 3.9c.24 2.27 1.7 4.01 4.36 5.21 2.66 1.2 6.85 2.56 12.56 4.07a135.5 135.5 0 0 1 16.42 5.17 33.44 33.44 0 0 1 11.68 7.96c3.44 3.57 5.47 8.29 6.09 14.16a30.88 30.88 0 0 1-2.81 17.03c-2.52 5.2-6.52 9.47-12.01 12.83-5.5 3.35-12.21 5.44-20.17 6.28Zm117.76-115.09 2.63 25-26.71 2.81 7.94 75.58-31.54 3.32-7.94-75.58-26.43 2.78-2.63-25.01 84.68-8.9Zm69.68 94.38-22.69-34.1-.14.01 3.8 36.1-31.55 3.3-10.57-100.58 46.88-4.93c8.15-.86 15.26-.14 21.34 2.14 6.09 2.28 10.83 5.76 14.24 10.43a33.07 33.07 0 0 1 6.1 16.38 30.09 30.09 0 0 1-3.72 18.49c-3.2 5.6-8.18 9.9-14.95 12.91l25.93 36.2-34.67 3.65Zm-25.04-55.11 12.5-1.32c3.03-.32 5.23-1.24 6.6-2.77 1.38-1.54 1.9-3.77 1.6-6.7-.28-2.66-1.28-4.66-3-6.01s-4.05-1.87-6.99-1.57l-12.5 1.32 1.79 17.05Zm155.68-60.32-28.72 73.83 3.2 30.55-31.53 3.32-3.21-30.55-43.45-66.25 36.08-3.8 19.8 33.98 12.31-37.35 35.52-3.73Zm78.49 93.45-33.85-40.54 4.58 43.62-31.54 3.31-10.57-100.59 31.54-3.31 4.45 42.34 24.4-45.37 35.65-3.75-29.6 51.8 42.45 48.55-37.51 3.94Zm70.07-83.64 1.3 12.36 31.26-3.29 2.49 23.73-31.26 3.29 1.5 14.2 35.51-3.73 2.65 25.15-67.06 7.05-10.57-100.6 67.06-7.04 2.64 25.15-35.52 3.73Zm105.95 65.14-22.69-34.1-.14.01 3.8 36.1-31.55 3.3-10.57-100.58 46.88-4.93c8.15-.85 15.26-.14 21.34 2.14 6.08 2.28 10.83 5.76 14.24 10.43a33.07 33.07 0 0 1 6.1 16.38 30.09 30.09 0 0 1-3.72 18.49c-3.2 5.6-8.18 9.9-14.95 12.92l25.93 36.2-34.67 3.64Zm-25.04-55.11 12.5-1.32c3.03-.31 5.23-1.24 6.6-2.77 1.38-1.54 1.9-3.77 1.6-6.7-.28-2.66-1.28-4.66-3-6.01-1.72-1.35-4.05-1.87-6.99-1.56l-12.5 1.3 1.79 17.06Z"/><path fill="#a1352b" fill-rule="nonzero" d="m2250 848.35-64.45-16.91-65.33-15.46 3.5 45.2L2250 848.35Z"/><path fill="#f1c413" d="M448.26 1029.37 2123.7 861.11l-1.75-17.41L446.5 1011.96l1.75 17.41Z"/><path fill="#a1352b" fill-rule="nonzero" d="m2117.68 1086.28-64.45-16.62-65.33-15.75 3.5 45.2 126.28-12.83Z"/><path fill="#f1c413" d="m649.58 1233.95 1341.95-134.77-1.75-17.4-1341.95 134.76 1.75 17.41Z"/><path fill="#973e37" fill-rule="nonzero" d="m1713.63 801.4-64.45-16.61-65.33-15.75 3.5 45.2 126.28-12.83Z"/><path fill="#f1c413" d="m739.85 899.18 847.62-85.12-1.75-17.41-847.62 85.12 1.75 17.41Z"/><path fill="#f1c413" fill-rule="nonzero" d="m1676.89 339.39-172.93 24.24 22.62-186.4-55.49 129.03-12.12-205.53-64.1 240.28-45-90.51s25.87 132.26 19.13 132.26c-7 0-82.96-27.75-82.96-27.75l19.12 165.4 12.13 67.87s408.36 10.5 399.74 5.12c-8.62-5.12-143.58-104.51-143.58-104.51s254.29 34.75 245.67 33.13c-8.62-1.62-259.67-90.5-259.67-90.5l154.07-26.14-140.07-21 103.44-45Z"/><g fill-rule="nonzero"><path fill="#e84c3d" d="M958.07 1220.36c1.65 2.74 80.95-10.7 121.28 58.72s34.02 101.24 34.02 101.24l9.88-1.1 29.08-16.18s14.82 5.21 8.78 78.47c-6.03 73.26-12.07 90.27-48.84 172.04-36.49 81.76-54.87 142.68-54.87 142.68s72.71 52.4 96.3 70.79c23.6 18.38 91.37 38.96 41.44 65.85-49.94 26.89-238.99 0-238.99 0s-57.34-29.36-46.37-95.21c10.98-65.85 49.94-180.54 70.8-204.96 20.84-24.42 49.93-110.85 49.93-110.85l-81.77-90.28-204.96 18.39-170.66-34.03 32.92-139.1 107.01-20.59 82.04-6.3 19.2 2.74s12.63-29.36 22.23-35.95c9.6-6.58 10.7-10.15 19.76-12.07 9.05-1.92 15.09-1.65 24.14-1.1 9.06.55 31.28 7.14 48.02 14.55 16.74 7.68 25.8 15.09 29.36 22.77 3.84 7.4.27 19.48.27 19.48Zm-372.6 435.72s31.82-55.98 69.41-110.85c37.87-54.88 49.94-112.23 49.94-112.23l-137.74 20.86-70.79 109.75-3.57 142.68 32.93 25.52 59.81-75.73Zm176.97-610.5c12.9-13.45 20.85-24.97 35.12-40.06 14.27-15.1 17.84-21.4 37.87-33.47 20.03-12.08 51.58-31.56 63.65-42.26s8.5-7.96 32.1-27.16 50.76-36.5 72.99-57.07c22.22-20.86 51.58-47.2 51.58-47.2s6.31 3.57 6.31 22.23-4.94 46.37-4.94 46.37l-10.7 28.53s2.2 20.86 2.75 18.66c.82-2.2 171.49-99.33 171.49-99.33s3.56-17.28 1.37-17.28c-2.2 0-80.12 10.7-80.12 10.7s2.2-42.8-7.96-71.34c0 0 18.66-4.39 32.1-34.3 13.45-29.9 6.31-62.28 6.31-62.28l118.54-89.45 25.79 55.15 11.52-9.88s-9.88-76.55-16.46-106.46c-6.31-29.9-21.13-63.65-21.13-63.65l-178.35 110.85-224.99 149.26-24.42 33.48 51.59 25.79s-6.31 9.33-8.5 9.33c-2.2 0-29.37 17.28-49.4 53.5l-95.76 123.2-38.41 85.6 40.06 28.54ZM504.52 773.67c63.3 0 114.7 51.39 114.7 114.69s-51.4 114.7-114.7 114.7c-63.3 0-114.69-51.4-114.69-114.7 0-63.3 51.4-114.7 114.7-114.7Z"/><path fill="#f1836a" d="M958.07 1220.36c1.65 2.74 80.95-10.7 121.28 58.72s34.02 101.24 34.02 101.24l9.88-1.1 29.08-16.18s14.82 5.21 8.78 78.47c-6.03 73.26-12.07 90.27-48.84 172.04-36.49 81.76-54.87 142.68-54.87 142.68s72.71 52.4 96.3 70.79c23.6 18.38 91.37 38.96 41.44 65.85-49.94 26.89-238.99 0-238.99 0s-57.34-29.36-46.37-95.21c10.98-65.85 49.94-180.54 70.8-204.96 20.84-24.42 49.93-110.85 49.93-110.85l-81.77-90.28-204.96 18.39-170.66-34.03 32.92-139.1 107.01-20.59 82.04-6.3 19.2 2.74s12.63-29.36 22.23-35.95c9.6-6.58 10.7-10.15 19.76-12.07 9.05-1.92 15.09-1.65 24.14-1.1 9.06.55 31.28 7.14 48.02 14.55 16.74 7.68 25.8 15.09 29.36 22.77 3.84 7.4.27 19.48.27 19.48Zm-372.6 435.72s31.82-55.98 69.41-110.85c37.87-54.88 49.94-112.23 49.94-112.23l-137.74 20.86-70.79 109.75-3.57 142.68 32.93 25.52 59.81-75.73Zm176.97-610.5c12.9-13.45 20.85-24.97 35.12-40.06 14.27-15.1 17.84-21.4 37.87-33.47 20.03-12.08 51.58-31.56 63.65-42.26s8.5-7.96 32.1-27.16 50.76-36.5 72.99-57.07c22.22-20.86 51.58-47.2 51.58-47.2s6.31 3.57 6.31 22.23-4.94 46.37-4.94 46.37l-10.7 28.53s2.2 20.86 2.75 18.66c.82-2.2 171.49-99.33 171.49-99.33s3.56-17.28 1.37-17.28c-2.2 0-80.12 10.7-80.12 10.7s2.2-42.8-7.96-71.34c0 0 18.66-4.39 32.1-34.3 13.45-29.9 6.31-62.28 6.31-62.28l118.54-89.45 25.79 55.15 11.52-9.88s-9.88-76.55-16.46-106.46c-6.31-29.9-21.13-63.65-21.13-63.65l-178.35 110.85-224.99 149.26-24.42 33.48 51.59 25.79s-6.31 9.33-8.5 9.33c-2.2 0-29.37 17.28-49.4 53.5l-95.76 123.2-38.41 85.6 40.06 28.54ZM504.52 773.67c63.3 0 114.7 51.39 114.7 114.69s-51.4 114.7-114.7 114.7c-63.3 0-114.69-51.4-114.69-114.7 0-63.3 51.4-114.7 114.7-114.7Z"/><path fill="#973e37" d="M887.75 839.39c-9.65 3.49-22.99 7.98-29.55 12.2-11.25 7.4-14.54 25.24-18.66 43.9-4.12 18.66-9.33 13.44-26.07 24.97-16.73 11.52-24.96 23.04-37.59 53.23-12.62 30.18 2.2 49.93-10.42 71.88-12.35 21.96-119.9 109.48-119.9 109.48l31.27 58.45 36.5 2.2s-28.27 23.04-45 34.56c-16.74 11.53-48.02 55.43-48.02 55.43s-1.1 31.28 9.33 43.9c10.43 12.62 34.3 24.14 61.46 21.95 27.16-2.2 23.05-20.85 55.43-33.48 32.37-12.62 49.11-5.2 85.6-1.1 36.5 4.12 40.61-1.91 57.35-4.1 16.73-2.2 103.44-54.34 103.44-54.34l-56.25 59.54 78.2-43.9-32.38 77.1s5.22 14.55 20.86 23.88 47.19 29.35 65.85 32.37c18.93 3.02 32.37 5.22 39.78-5.21 7.41-10.43 5.22-59.54 5.22-59.54s12.34-14.54 24.96-14.54c12.35 0 13.45 14.54 13.45 14.54s-8.23 7.4-15.64 20.85c-7.4 13.45-6.31 26.07-10.43 52.13-4.11 26.07-18.66 72.17-29.08 107.56-10.43 35.67-30.18 64.76-40.61 76.28-10.43 11.25-29.08 21.68-57.35 29.08-28.26 7.14-40.6 36.5-41.7 56.25-1.1 19.76 39.51 30.18 61.46 64.76 21.95 34.57-23.05 65.85-23.05 65.85s85.6 23.87 111.67 24.97c26.07.82 46.1 4.11 60.64-7.41 6.86-5.5-.55-14-10.15-21.95 7.96 5.48 15.64 10.7 19.48 13.72 9.33 7.13 62.56 56.24 72.99 82.31 10.42 26.07 23.04 65.85 15.64 71.06-7.41 5.22-26.07 2.2-37.6 6.32-3.56 1.1-43.62 13.99-97.67 31.28H587.66c2.47-1.65 4.66-3.57 6.86-5.22 26.07-20.85 112.77-64.75 112.77-64.75s11.52-34.57 20.85-46.92c9.33-12.35 38.42-49.94 71.89-77.1 33.47-27.17 62.56-35.4 62.56-35.4s3.02-21.95 9.33-35.4c6.3-13.44 41.7-88.62 59.54-125.11 17.56-36.5 9.33-53.23 8.23-84.51-1.1-31.28-11.52-49.11-7.4-69.97 4.1-21.12 17.83-32.37 20.84-39.78 3.3-7.14 0-10.43-3.01-13.45-3.02-3.01-37.6-6.3-53.23-4.11-15.64 1.92-46.1 7.13-71.07 9.33-25.24 2.2-124.3 5.21-124.3 5.21s-3.29 10.43-17.83 23.87c-14.54 13.72-21.95 6.31-21.95 6.31s-20.85 23.87-30.18 36.5c-9.33 12.62-48.02 71.06-48.02 71.06l-7.4-48.02s-38.7 69.97-38.7 72.99c0 3.02 4.12 31.28 5.22 41.7 1.1 10.43-4.12 43.9-4.12 43.9s31.28-35.66 41.71-43.9c10.43-8.5 10.43 4.12 12.62 13.45 2.2 9.33-3.02 10.43-8.23 26.06-5.21 15.64-30.18 83.42-45.82 121-15.64 37.6-24.97 30.46-36.5 38.7-11.52 8.23-57.61 55.42-76.27 68.86-18.66 13.45-21.68 44.73-18.66 57.35 3.02 12.62 43.63 36.5 51.04 48.02 7.13 11.52-8.51 7.4-23.05 7.4-5.76 0-13.17.83-20.3 1.93H221.63l18.1-37.6s4.4-13.71 11.53-23.04c7.13-9.33 30.18-43.9 30.18-43.9s16.46-35.4 23.87-52.14c7.41-16.73 0-23.04 0-43.9 0-20.85 0-53.23 10.43-82.31 10.42-29.09 36.5-64.76 56.25-89.72 19.75-25.25 17.83-9.6 37.59-23.05 19.75-13.45 18.65-15.64 15.64-23.87-3.02-8.5-14.55-8.5-19.76-12.62-5.21-4.12-7.13-6.32-3.02-16.74 4.4-10.43 13.72-57.62 17.84-76.28 4.11-18.66 8.23-40.6 18.65-46.92 10.43-6.31 31.28-5.21 31.28-5.21s-9.33-21.95-11.52-36.5c-2.2-14.54-1.1-46.91-1.1-46.91s-1.92-5.22-14.54-26.07c-12.35-20.85-56.25-77.1-66.67-99.05-10.7-21.95-34.58-30.18-34.58-30.18l-103.16 87.8s-3.02 9.05-14.82 41.43c-12.07 32.38-21.4 29.63-43.35 48.56-21.95 18.94-49.94 74.64-49.94 74.64s9.6 2.47 18.11 3.29c8.5.82 20.03 8.5 30.46 26.07 10.42 17.56 2.2 16.73-4.4 18.1-6.58 1.38-22.77-11.8-28.53-15.64-5.76-3.84-8.5-3.56-8.5.83s9.6 47.2 5.2 51.86c-4.38 4.94-13.98 3.56-20.02 2.47-6.04-1.1-10.43-12.9-13.17-20.03-2.75-7.14-6.59-5.22-9.06-.83-2.47 4.4.55 21.95-3.84 24.7-4.39 3.02-10.97 1.37-21.4-1.37-10.43-2.75-3.3-9.88-7.13-15.1-3.57-5.21-9.88-1.37-9.88-1.37s1.37 11.25.55 17.56c-.82 6.31-15.64 1.1-20.85-4.66-5.22-5.76-3.85-1.92-8.51-20.03-4.67-18.11-2.47-15.37 1.92-31 4.39-15.65 22.22-44.18 22.22-44.18s-5.2-32.38-5.2-47.75c0-15.36-4.13-33.74 10.14-72.43 14.27-38.69 53.78-125.4 73.26-142.68 19.21-17.29 34.58-7.13 34.58-7.13 29.63-60.1 96.85-129.24 96.85-129.24s0-34.57 31.56-71.34c31.55-36.49 81.21-41.7 84.5-41.7 3.3 0 12.35-46.92 12.35-46.92l57.9-10.43c-5.5-8.23-14.27-46.37 24.14-62.56 38.41-15.91 67.22 12.9 67.22 12.9l-10.15 8.78s6.04 2.74 6.59 7.4c.82 4.67-4.67 7.97-4.67 7.97l10.7 8.78s5.22-2.75 14 0c8.78 2.74 22.22 8.78 22.22 8.78s.83 8.23 29.91.82c29.08-7.4 59.54 1.92 63.66 3.02 4.11 1.1 65.57-34.3 78.2-40.61 12.62-6.31 28.26-13.72 32.37-23.05 4.4-9.6 21.13-33.47 34.57-45 13.72-11.25 31.56-17.56 34.58-3.02 2.9 13.98 39.75 51.01 45.3 55.83l.24.15c11.8 7.4 20.86 24.7 24.42 46.64 3.57 21.95 0 21.95 0 21.95s-13.17 24.7-30.73 37.04c-17.56 12.63-56.25 34.85-59.26 35.4-8.51 1.37 4.11-12.62 4.11-30.18 0-17.84-4.66-27.17-4.66-27.17l8.78-4.66s2.47 2.2 6.3 11.52c3.85 9.33 1.65 38.97 1.65 38.97s4.67-3.57 6.86-8.78c2.2-5.22 2.2-14 1.1-26.62-1.1-12.62-4.12-20.3-4.12-20.3l8.24-4.67c12.34 11.53 8.78 45.27 8.78 45.27 5.76-9.32 6.86-14.54 6.3-29.63-.54-15.09-4.1-23.32-4.1-23.32l6.85-4.12c9.88 13.45 8.5 39.51 11.53 37.32 3.01-1.92 15.09-21.68 18.65-37.32 3.57-15.64.55-16.73-4.11-29.63-3.8-10.5-13.8-19.01-17.37-21.8Zm-10.18 324.15c3.2.1 9.16 1.39 9.16 1.39s24.7 23.87 28.54 30.73c3.84 6.86 1.1 6.31-4.12 12.07-5.2 5.77-10.42 7.41-20.57 13.17s-12.63 14.27-14.27 15.37c-1.65 1.1 41.16 16.46 53.23 17.01 10.42.47 24.1-24.18 27.66-30.95l.57-1.1c-3.2 6.31-30.9 60.62-38.38 65.53-7.96 5.2-60.1 9.32-90.28 4.66-30.18-4.67-69.69-5.21-77.65-13.17-7.95-7.96-4.11-18.38 1.1-26.34 5.21-7.96 34.85-38.41 35.95-40.06v.55h23.87s-8.5 17.83-8.5 19.48c0 1.65 9.87-4.12 21.12-4.12 11.25 0 23.32 3.3 23.32 3.3s14.27-9.6 26.89-15.37c12.62-5.76 18.93-7.68 28.54-11.52 9.6-3.84 4.11-9.06-.55-16.47-4.67-7.4-25.8-21.12-27.44-23.32-.46-.62.2-.84 1.4-.85h.41Zm-2.3 24.68c.02-.18.08-.27.21-.24l-.2.24c-.07 1.4 3.15 8.09 8.71 8.81 9.6 1.1 15.37-2.2 15.37-2.2s-3.57 13.45-18.11 8.24c-13.17-4.97-7.21-13.32-5.97-14.85Zm209.3-646.13s-25.53-9.88-60.1-6.32-63.65 6.32-86.43 17.3c-22.77 10.97-90 54.6-90 54.6s29.91 4.66 52.69 12.61c22.77 7.96 31.83 9.88 31 17.29-.82 7.13-26.34 20.03-26.34 20.03l-80.94 53.5 85.33 38.97s60.1-31 78.2-38.97c18.11-8.23 49.94-29.08 62.56-23.6 12.62 5.5 16.46 7.14 17.29 22.78.82 15.64-9.88 81.77-9.88 81.77l42.8-24.42s2.75 49.93 10.98 57.34c8.23 7.14 18.1 6.31 20.03-8.23 1.92-14.54-10.98-97.13-10.98-97.13s17.29-6.31 23.6-18.1c6.3-11.8 9.05-21.69 5.49-33.48-3.57-11.8-7.14-26.34-7.14-26.34s56.25-38.97 67.23-49.12c10.97-9.88 6.3-33.47-13.72-25.52-20.03 8.24-182.47 119.9-185.21 119.9-2.74 0-22.77.83-51.86 14.55a3462.33 3462.33 0 0 0-49.11 23.6L870 713.3l420.62-287s-14.54-1.92-33.47 4.66c-18.93 6.59-172.59 111.13-172.59 111.13ZM976.45 669.12a7.96 7.96 0 0 1 7.95 7.96 7.96 7.96 0 0 1-7.95 7.96 7.96 7.96 0 0 1-7.96-7.96 7.96 7.96 0 0 1 7.96-7.96Zm37.86-27.43c12.35-9.6 145.42-104.54 155.3-110.85 9.88-6.31 17.01-7.69 15.64 1.92-1.37 9.6 2.47 11.25-16.46 22.77-18.93 11.25-142.68 96.3-150.91 101.25-8.23 4.94-15.1 5.76-17.01.55-1.65-4.94 5.48-9.33 13.44-15.64Zm210.18-93.84 12.62 42.25 12.07-9.6-16.46-40.88-8.23 8.23Zm17.83-12.07 11.25 39.23 11.25-5.76-15.09-39.51-7.4 6.04Zm16.19-10.7c.55 3.84 11.25 40.33 11.25 40.33l12.62-9.33-15.64-35.94-8.23 4.93Zm-52.4-15.37a11.53 11.53 0 1 1-.02 23.06 11.53 11.53 0 0 1 .01-23.06Zm32.1-23.05a12.35 12.35 0 1 1-.02 24.7 12.35 12.35 0 0 1 .02-24.7Zm60.63-41.43s20.03-12.62 28.27-15.64c8.23-3.02 18.1 1.37 22.77 9.33 4.66 7.96 4.39 21.4-4.94 29.63s-31.55 26.34-31.55 26.34l-14.55-49.66Z"/></g><path fill="#f1c413" fill-rule="nonzero" d="m1254.56 1257.1-18.44-20.79 2.36 22.48-14.26 1.5-5.39-51.29 14.26-1.5 2.33 22.12 13.6-23.8 16.44-1.72-16.22 26.86 22.56 24.33-17.24 1.81Zm31.34-55.15 5.4 51.29-14.27 1.5-5.39-51.3 14.26-1.49Zm26.65 38.02 15.93-1.67 1.15 10.9-30.2 3.18-5.38-51.29 14.26-1.5 4.24 40.38Zm35.72-3.75 15.93-1.67 1.15 10.9-30.2 3.18-5.38-51.29 14.26-1.5 4.24 40.38Zm69.74-48.15 1.2 11.35-13.68 1.44 4.2 39.93-14.26 1.5-4.2-39.94-13.53 1.43-1.2-11.35 41.47-4.36Zm51.22-5.39 5.4 51.29-14.27 1.5-2.16-20.6-17.39 1.83 2.17 20.6-14.26 1.5-5.4-51.3 14.27-1.5 2.02 19.28 17.39-1.82-2.03-19.28 14.26-1.5Zm23.6 9.07.88 8.37 16.37-1.73 1.14 10.84-16.37 1.72.97 9.24 18.55-1.95 1.2 11.43-32.8 3.44-5.4-51.28 32.81-3.45 1.2 11.42-18.55 1.95Zm98.17-21.87 5.4 51.29-14.27 1.5-2.97-28.3-6.7 29.31-11.93 1.26-12.75-27.5 3 28.52-14.26 1.5-5.4-51.29 17.25-1.8 16.38 31.96 9.08-34.65 17.17-1.8Zm22.12-2.32 3.13 29.75c.29 2.77 1.15 4.83 2.6 6.2 1.44 1.37 3.47 1.92 6.1 1.64 2.61-.27 4.5-1.25 5.68-2.91 1.17-1.67 1.62-3.86 1.33-6.58l-3.13-29.75 14.26-1.5 3.13 29.75c.5 4.7-.08 8.82-1.72 12.36a19.14 19.14 0 0 1-7.32 8.34 25.7 25.7 0 0 1-11.12 3.7c-4.17.45-7.98 0-11.43-1.33a18.37 18.37 0 0 1-8.5-6.64c-2.21-3.1-3.57-7.03-4.07-11.79l-3.12-29.75 14.18-1.49Zm76.46-8.03 1.2 11.35-13.68 1.44 4.2 39.93-14.26 1.5-4.2-39.94-13.53 1.43-1.2-11.35 41.47-4.36Zm42.26 38.95-18.19 1.91-1.88 8.66-14.99 1.57 13.3-53.25 16.45-1.73 24.01 49.33-15.06 1.59-3.64-8.08Zm-4.71-10.54-7.27-16-3.72 17.16 10.99-1.16Zm75.58 11.55-14.26 1.5-22-26.67 3.01 28.66-14.25 1.5-5.4-51.28 14.26-1.5 22.04 27.03-3.05-29.03 14.26-1.5 5.39 51.29Zm41.38-56.2 1.2 11.35-13.68 1.44 4.2 39.93-14.26 1.5-4.2-39.94-13.53 1.43-1.2-11.35 41.47-4.36Zm30.11 49.2c-5.97.63-11.01-.28-15.14-2.71-4.13-2.44-6.62-6.28-7.47-11.54l15.2-1.6c.34 1.78 1.01 3.04 2.02 3.76 1 .73 2.24 1.02 3.7.87a5.17 5.17 0 0 0 3.13-1.33 3.3 3.3 0 0 0 .99-2.86c-.16-1.5-.99-2.59-2.48-3.27a37.33 37.33 0 0 0-7.13-2.04 61.82 61.82 0 0 1-8.45-2.39 15.64 15.64 0 0 1-5.87-4.02c-1.74-1.85-2.78-4.4-3.12-7.65-.34-3.3.18-6.2 1.58-8.73a15.4 15.4 0 0 1 6.28-6.07 25.65 25.65 0 0 1 9.7-2.86c5.97-.62 10.88.27 14.74 2.68 3.86 2.42 6.17 6.13 6.94 11.15l-15.5 1.63c-.2-1.55-.8-2.66-1.78-3.34a5.12 5.12 0 0 0-3.58-.8 3.7 3.7 0 0 0-2.51 1.22c-.62.7-.86 1.63-.74 2.8.1.97.57 1.76 1.4 2.39a10.4 10.4 0 0 0 2.98 1.52c1.17.4 2.89.86 5.15 1.41 3.37.77 6.16 1.6 8.39 2.47 2.22.87 4.2 2.2 5.94 4 1.73 1.8 2.76 4.21 3.07 7.22.32 3.06-.15 5.88-1.43 8.46a15.83 15.83 0 0 1-6.01 6.45 23.32 23.32 0 0 1-10 3.18Z"/></svg>
