<svg xmlns="http://www.w3.org/2000/svg" width="32" height="32" fill-rule="evenodd" stroke-linejoin="round" stroke-miterlimit="2" clip-rule="evenodd" viewBox="0 0 1458 1458"><path fill="none" d="M0 0h1458v1458H0z"/><clipPath id="a"><path d="M0 0h1458v1458H0z"/></clipPath><g clip-path="url(#a)"><path fill="#e74c3c" fill-rule="nonzero" d="M1458 729c0 402.65-326.35 729-729 729S0 1131.65 0 729C0 326.44 326.35 0 729 0s729 326.35 729 729"/><path fill-opacity=".3" d="M778.35 1456.15 576.6 1254.4l233-105 85-78.67v-64.33l-257-257-44-187-50-208 251.8-82.8 281.2 117.8 380.14 379.15c-19.68 367.73-311.91 663.05-678.4 687.6z"/><path fill="#f1c40f" fill-rule="nonzero" d="M753.4 329.5c41.79 0 74.58 7.83 97.92 25.45 23.58 18.01 41.7 43.95 55.17 77.1l11.66 28.67 165.74-58.18-14.14-32.13c-26.69-60.66-64.9-108.61-114.2-144.01-49.32-35.42-117.45-54.3-204.85-54.3-50.78 0-95.65 7.37-134.77 21.54-40.09 14.67-74.09 34.79-102.24 60.26-28.84 26.2-50.64 57.06-65.5 92.7-14.71 35.05-22.1 72.54-22.1 112.4 0 72.54 20.67 133.3 61.17 182.7 38.63 47.26 98.35 88.04 179.86 121.3 42.26 17.47 78.72 33.12 109.23 46.99 27.2 12.36 49.3 26.12 66.16 41.75 15.3 14.19 26.5 30.58 33.63 49.26 7.72 20.21 11.16 45.69 11.16 76.4 0 28.02-4.25 51.79-13.6 71.22-8.83 18.37-20.17 33.18-34.52 44.22a139.38 139.38 0 0 1-49.39 24.46 221.9 221.9 0 0 1-58.69 8c-29.36 0-54.39-3.41-75.18-10.75-20.11-7.01-37.15-16.14-51.26-27.49-13.62-11-24.97-23.76-33.75-38.28a252.91 252.91 0 0 1-23.03-48.4L536.92 969l-161.67 60.59 10.73 30.12a371 371 0 0 0 42.06 82.75c18.21 27.14 41.32 51.37 69.53 72.74 27.7 21.08 60.9 38.22 99.48 51.04 37.77 12.67 82 19.16 132.55 19.16 50 0 95.82-8.32 137.61-24.62 42.23-16.47 78.44-39 108.84-67.29a306.91 306.91 0 0 0 71.83-100.64c17.26-38.56 25.92-79.4 25.92-122.25 0-54.34-8.37-100.37-24.2-138.32-16.3-38.76-38.26-71.66-65.95-98.8-26.97-26.42-58.27-48.83-93.86-67.17a1108.59 1108.59 0 0 0-106.6-47.54c-35.93-13.42-65.82-26.6-89.94-39.52-22.16-11.87-40.01-24.21-53.55-37.3-11.43-11.14-19.83-23.69-24.72-37.67-5.41-15.5-7.98-33.43-7.98-53.58 0-40.88 11.3-71.52 37.09-90.54 28.44-20.82 64.98-30.66 109.31-30.66z"/><path d="M720 0h18v113h-18zm738 738v-18h-113v18h113zm-738 607h18v113h-18zM113 738v-18H0v18h113z"/></g></svg>
