<svg viewBox="0 0 990 815" xmlns="http://www.w3.org/2000/svg" fill-rule="evenodd" clip-rule="evenodd" stroke-linejoin="round" stroke-miterlimit="2"><path fill="none" d="M0 0h989.583v814.583H0z"/><g fill-rule="nonzero"><path d="M846.193 238.659l-172.934 24.243L695.886 76.5l-55.489 129.027L628.275 0l-64.109 240.275-44.984-90.507s25.859 132.259 19.125 132.259c-7.004 0-82.965-27.745-82.965-27.745l19.125 165.391 12.121 67.88s408.36 10.506 399.74 5.118c-8.619-5.118-143.572-104.514-143.572-104.514s254.282 34.749 245.662 33.132c-8.619-1.616-259.669-90.507-259.669-90.507l154.078-26.128-140.071-21.011 103.437-44.984z" fill="#f1c413"/><path d="M231.303 568.394s37.281 15.914 0 129.233c0 0 6.311 3.567 6.311 22.225s-4.939 46.37-4.939 46.37l-10.701 28.536s2.195 20.853 2.744 18.658c.823-2.195 171.488-99.326 171.488-99.326s3.567-17.286 1.372-17.286c-2.195 0-80.12 10.701-80.12 10.701s2.196-42.803-7.957-71.339c0 0 18.658-4.39 32.103-34.298 13.445-29.907 6.311-62.284 6.311-62.284l118.532-89.448 25.792 55.15 11.524-9.877s-9.878-76.553-16.463-106.46c-6.311-29.908-21.127-63.656-21.127-63.656L287.825 436.142 62.833 585.406l-24.42 33.474 47.417 23.708 145.473-74.194z" fill="#f1836a"/><path d="M260.113 441.356s-25.517-9.878-60.089-6.311-63.657 6.311-86.43 17.286c-22.774 10.975-89.997 54.602-89.997 54.602s29.907 4.664 52.681 12.621c22.773 7.957 31.828 9.878 31.005 17.286-.823 7.134-26.341 20.03-26.341 20.03L0 610.374l85.332 38.962s60.09-31.005 78.199-38.962c18.109-8.231 49.937-29.084 62.559-23.597 12.621 5.488 16.463 7.134 17.286 22.774.823 15.64-9.878 81.765-9.878 81.765l42.803-24.419s2.744 49.937 10.976 57.345c8.231 7.134 18.109 6.311 20.029-8.231 1.921-14.542-10.975-97.131-10.975-97.131s17.286-6.311 23.597-18.109c6.311-11.799 9.054-21.676 5.488-33.475-3.567-11.798-7.134-26.34-7.134-26.34s56.248-38.962 67.223-49.114c10.975-9.878 6.311-33.475-13.719-25.518-20.03 8.232-182.463 119.905-185.207 119.905-2.744 0-22.774.823-51.858 14.542-29.084 13.719-49.114 23.597-49.114 23.597l-40.06-11.799 420.626-287.002s-14.542-1.921-33.475 4.664c-18.932 6.586-172.585 111.125-172.585 111.125zM152.007 568.394a7.96 7.96 0 017.957 7.957 7.96 7.96 0 01-7.957 7.957 7.96 7.96 0 01-7.957-7.957 7.96 7.96 0 017.957-7.957zm37.864-27.438c12.348-9.603 145.422-104.539 155.3-110.85 9.878-6.311 17.012-7.683 15.64 1.921-1.372 9.603 2.469 11.249-16.463 22.773-18.932 11.25-142.678 96.308-150.91 101.247-8.231 4.939-15.091 5.762-17.011.549-1.646-4.939 5.487-9.329 13.444-15.64zm210.176-93.838l12.622 42.254 12.072-9.603-16.462-40.883-8.232 8.232zm17.835-12.073l11.249 39.236 11.25-5.762-15.091-39.51-7.408 6.036zm16.188-10.701c.549 3.841 11.25 40.334 11.25 40.334l12.621-9.329-15.639-35.944-8.232 4.939zm-52.406-15.365c6.36 0 11.524 5.163 11.524 11.524 0 6.36-5.164 11.524-11.524 11.524-6.361 0-11.524-5.164-11.524-11.524 0-6.361 5.163-11.524 11.524-11.524zm32.102-23.048c6.815 0 12.347 5.532 12.347 12.347 0 6.814-5.532 12.347-12.347 12.347-6.814 0-12.347-5.533-12.347-12.347 0-6.815 5.533-12.347 12.347-12.347zm60.638-41.432s20.03-12.621 28.261-15.639c8.232-3.019 18.11 1.371 22.774 9.328 4.665 7.958 4.39 21.402-4.939 29.634-9.329 8.231-31.554 26.34-31.554 26.34l-14.542-49.663z" fill="#973e37"/></g></svg>