<svg viewBox="0 0 2250 2250" xmlns="http://www.w3.org/2000/svg" fill-rule="evenodd" clip-rule="evenodd" stroke-linejoin="round" stroke-miterlimit="2"><path fill="none" d="M0 0h2250v2250H0z"/><path d="M2250 848.352l-64.452-16.915-65.328-15.457 3.5 45.204L2250 848.352z" fill="#a1352b" fill-rule="nonzero"/><path d="M448.257 1029.37l1675.45-168.26-1.749-17.411-1675.45 168.26 1.748 17.411z" fill="#f1c413"/><path d="M1828 1116.66l-64.452-16.624-65.328-15.748 3.5 45.204L1828 1116.66z" fill="#a1352b" fill-rule="nonzero"/><path d="M584.927 1241.74l1116.92-112.169-1.749-17.411-1116.92 112.169 1.749 17.411z" fill="#f1c413"/><path d="M1423.78 837.562l-64.452-16.624L1294 805.19l3.5 45.204 126.28-12.832z" fill="#973e37" fill-rule="nonzero"/><path d="M450.006 935.334l847.619-85.124-1.749-17.411-847.619 85.124 1.749 17.411z" fill="#f1c413"/><path d="M1676.89 339.389l-172.934 24.243 22.627-186.402-55.489 129.027-12.122-205.527-64.109 240.275-44.984-90.507s25.859 132.259 19.125 132.259c-7.004 0-82.965-27.745-82.965-27.745l19.125 165.391 12.121 67.881s408.36 10.505 399.74 5.118c-8.62-5.118-143.572-104.514-143.572-104.514s254.282 34.748 245.662 33.132c-8.62-1.617-259.669-90.508-259.669-90.508l154.077-26.128-140.07-21.011 103.437-44.984z" fill="#f1c413" fill-rule="nonzero"/><g fill-rule="nonzero"><path d="M958.073 1220.36c1.647 2.744 80.943-10.701 121.277 58.718 40.334 69.418 34.023 101.246 34.023 101.246l9.877-1.098 29.085-16.188s14.816 5.213 8.78 78.473c-6.036 73.26-12.073 90.271-48.84 172.037-36.492 81.765-54.876 142.678-54.876 142.678s72.711 52.406 96.308 70.79c23.596 18.383 91.368 38.962 41.431 65.851-49.937 26.89-238.985 0-238.985 0s-57.346-29.359-46.371-95.21c10.975-65.851 49.938-180.542 70.79-204.962 20.853-24.42 49.938-110.85 49.938-110.85l-81.766-90.271-204.962 18.383-170.665-34.023 32.926-139.111 107.008-20.579 82.04-6.31 19.207 2.743s12.621-29.358 22.225-35.943c9.603-6.586 10.7-10.153 19.755-12.073 9.055-1.921 15.091-1.647 24.146-1.098 9.054.549 31.279 7.134 48.016 14.542 16.737 7.683 25.792 15.091 29.359 22.774 3.841 7.408.274 19.481.274 19.481zm-372.609 435.717s31.828-55.974 69.419-110.85c37.864-54.876 49.937-112.222 49.937-112.222l-137.739 20.853-70.79 109.752-3.567 142.678 32.925 25.518 59.815-75.729zM762.44 1045.58c12.896-13.445 20.853-24.969 35.121-40.06 14.267-15.091 17.834-21.402 37.864-33.474 20.03-12.073 51.584-31.554 63.656-42.255 12.073-10.701 8.506-7.957 32.103-27.164 23.597-19.206 50.76-36.492 72.985-57.071 22.225-20.853 51.584-47.193 51.584-47.193s6.311 3.566 6.311 22.224-4.939 46.371-4.939 46.371l-10.701 28.535s2.195 20.853 2.744 18.658c.823-2.195 171.488-99.326 171.488-99.326s3.567-17.286 1.372-17.286c-2.196 0-80.12 10.701-80.12 10.701s2.195-42.803-7.957-71.339c0 0 18.658-4.39 32.103-34.297 13.445-29.908 6.311-62.285 6.311-62.285l118.532-89.448 25.792 55.151 11.524-9.878s-9.878-76.552-16.463-106.46c-6.311-29.907-21.127-63.656-21.127-63.656l-178.348 110.85-224.992 149.263-24.42 33.474 51.584 25.792s-6.311 9.329-8.506 9.329c-2.195 0-29.359 17.286-49.389 53.504l-95.758 123.197-38.414 85.607 40.06 28.536zM504.522 773.668c63.3 0 114.691 51.392 114.691 114.691 0 63.3-51.391 114.692-114.691 114.692-63.3 0-114.691-51.392-114.691-114.692 0-63.299 51.391-114.691 114.691-114.691z" fill="#e84c3d"/><path d="M958.073 1220.36c1.647 2.744 80.943-10.701 121.277 58.718 40.334 69.418 34.023 101.246 34.023 101.246l9.877-1.098 29.085-16.188s14.816 5.213 8.78 78.473c-6.036 73.26-12.073 90.271-48.84 172.037-36.492 81.765-54.876 142.678-54.876 142.678s72.711 52.406 96.308 70.79c23.596 18.383 91.368 38.962 41.431 65.851-49.937 26.89-238.985 0-238.985 0s-57.346-29.359-46.371-95.21c10.975-65.851 49.938-180.542 70.79-204.962 20.853-24.42 49.938-110.85 49.938-110.85l-81.766-90.271-204.962 18.383-170.665-34.023 32.926-139.111 107.008-20.579 82.04-6.31 19.207 2.743s12.621-29.358 22.225-35.943c9.603-6.586 10.7-10.153 19.755-12.073 9.055-1.921 15.091-1.647 24.146-1.098 9.054.549 31.279 7.134 48.016 14.542 16.737 7.683 25.792 15.091 29.359 22.774 3.841 7.408.274 19.481.274 19.481zm-372.609 435.717s31.828-55.974 69.419-110.85c37.864-54.876 49.937-112.222 49.937-112.222l-137.739 20.853-70.79 109.752-3.567 142.678 32.925 25.518 59.815-75.729zM762.44 1045.58c12.896-13.445 20.853-24.969 35.121-40.06 14.267-15.091 17.834-21.402 37.864-33.474 20.03-12.073 51.584-31.554 63.656-42.255 12.073-10.701 8.506-7.957 32.103-27.164 23.597-19.206 50.76-36.492 72.985-57.071 22.225-20.853 51.584-47.193 51.584-47.193s6.311 3.566 6.311 22.224-4.939 46.371-4.939 46.371l-10.701 28.535s2.195 20.853 2.744 18.658c.823-2.195 171.488-99.326 171.488-99.326s3.567-17.286 1.372-17.286c-2.196 0-80.12 10.701-80.12 10.701s2.195-42.803-7.957-71.339c0 0 18.658-4.39 32.103-34.297 13.445-29.908 6.311-62.285 6.311-62.285l118.532-89.448 25.792 55.151 11.524-9.878s-9.878-76.552-16.463-106.46c-6.311-29.907-21.127-63.656-21.127-63.656l-178.348 110.85-224.992 149.263-24.42 33.474 51.584 25.792s-6.311 9.329-8.506 9.329c-2.195 0-29.359 17.286-49.389 53.504l-95.758 123.197-38.414 85.607 40.06 28.536zM504.522 773.668c63.3 0 114.691 51.392 114.691 114.691 0 63.3-51.391 114.692-114.691 114.692-63.3 0-114.691-51.392-114.691-114.692 0-63.299 51.391-114.691 114.691-114.691z" fill="#f1836a"/><path d="M887.752 839.39c-9.65 3.488-22.987 7.976-29.553 12.197-11.25 7.409-14.542 25.243-18.658 43.901-4.116 18.658-9.329 13.445-26.066 24.969-16.738 11.524-24.969 23.048-37.591 53.23-12.621 30.182 2.196 49.937-10.426 71.888-12.347 21.95-119.904 109.477-119.904 109.477l31.279 58.444 36.493 2.195s-28.262 23.048-44.999 34.572c-16.737 11.524-48.016 55.424-48.016 55.424s-1.098 31.28 9.329 43.901c10.426 12.622 34.297 24.146 61.461 21.951 27.164-2.195 23.048-20.853 55.425-33.475 32.377-12.621 49.114-5.213 85.607-1.097 36.492 4.116 40.608-1.921 57.345-4.116 16.737-2.195 103.442-54.327 103.442-54.327l-56.248 59.54 78.198-43.901-32.377 77.101s5.213 14.543 20.853 23.872 47.194 29.358 65.851 32.376c18.933 3.019 32.377 5.214 39.786-5.213 7.408-10.426 5.213-59.54 5.213-59.54s12.347-14.543 24.969-14.543c12.347 0 13.444 14.543 13.444 14.543s-8.231 7.408-15.64 20.853c-7.408 13.444-6.31 26.066-10.426 52.132-4.116 26.066-18.658 72.162-29.084 107.557-10.427 35.67-30.182 64.754-40.609 76.278-10.426 11.25-29.084 21.676-57.345 29.084-28.261 7.134-40.609 36.493-41.706 56.248-1.098 19.756 39.511 30.182 61.461 64.754 21.951 34.572-23.048 65.852-23.048 65.852s85.607 23.871 111.673 24.968c26.066.823 46.096 4.116 60.638-7.408 6.86-5.488-.548-13.993-10.152-21.95 7.957 5.487 15.64 10.7 19.481 13.719 9.329 7.133 62.559 56.248 72.985 82.314 10.427 26.066 23.048 65.851 15.64 71.064-7.408 5.214-26.066 2.195-37.59 6.311-3.567 1.098-43.627 13.994-97.68 31.28H587.659c2.47-1.647 4.665-3.567 6.86-5.214 26.066-20.853 112.77-64.754 112.77-64.754s11.524-34.572 20.853-46.919c9.329-12.347 38.414-49.937 71.888-77.101 33.474-27.163 62.559-35.395 62.559-35.395s3.018-21.95 9.329-35.395c6.31-13.444 41.706-88.625 59.54-125.117 17.561-36.493 9.329-53.23 8.232-84.51-1.098-31.279-11.524-49.114-7.409-69.967 4.116-21.127 17.835-32.377 20.853-39.785 3.293-7.134 0-10.426-3.018-13.445-3.018-3.018-37.59-6.31-53.23-4.115-15.639 1.92-46.096 7.134-71.064 9.329-25.243 2.195-124.295 5.213-124.295 5.213s-3.292 10.426-17.834 23.871c-14.543 13.719-21.951 6.311-21.951 6.311s-20.853 23.871-30.182 36.492c-9.329 12.622-48.016 71.065-48.016 71.065l-7.409-48.017s-38.687 69.967-38.687 72.986c0 3.018 4.115 31.279 5.213 41.705 1.097 10.427-4.116 43.901-4.116 43.901s31.28-35.669 41.706-43.901c10.426-8.505 10.426 4.116 12.622 13.445 2.195 9.329-3.019 10.427-8.232 26.066-5.213 15.64-30.182 83.412-45.821 121.002-15.64 37.59-24.969 30.456-36.493 38.688-11.524 8.231-57.62 55.425-76.278 68.869-18.658 13.445-21.676 44.724-18.658 57.346 3.018 12.621 43.627 36.493 51.035 48.017 7.134 11.524-8.506 7.408-23.048 7.408-5.762 0-13.17.823-20.304 1.921H221.635l18.11-37.591s4.39-13.719 11.524-23.048c7.133-9.329 30.181-43.901 30.181-43.901s16.463-35.395 23.872-52.132c7.408-16.737 0-23.048 0-43.901 0-20.853 0-53.23 10.426-82.314 10.426-29.084 36.493-64.754 56.248-89.722 19.755-25.243 17.835-9.604 37.59-23.048 19.756-13.445 18.658-15.64 15.64-23.872-3.018-8.505-14.542-8.505-19.755-12.621-5.214-4.116-7.134-6.311-3.019-16.737 4.39-10.427 13.719-57.62 17.835-76.278 4.116-18.658 8.231-40.608 18.658-46.919 10.426-6.311 31.279-5.213 31.279-5.213s-9.329-21.951-11.524-36.493c-2.195-14.542-1.097-46.919-1.097-46.919s-1.921-5.213-14.542-26.066c-12.347-20.853-56.248-77.101-66.675-99.052-10.701-21.95-34.572-30.182-34.572-30.182l-103.167 87.802s-3.018 9.055-14.817 41.432c-12.072 32.377-21.401 29.633-43.352 48.565-21.95 18.932-49.937 74.632-49.937 74.632s9.603 2.469 18.109 3.292c8.506.823 20.03 8.506 30.456 26.066 10.427 17.561 2.195 16.738-4.39 18.109-6.585 1.372-22.773-11.798-28.535-15.639-5.762-3.842-8.506-3.567-8.506.823 0 4.39 9.603 47.193 5.213 51.858-4.39 4.939-13.993 3.567-20.03 2.469-6.036-1.097-10.426-12.896-13.17-20.03-2.744-7.133-6.585-5.213-9.054-.823-2.47 4.39.548 21.951-3.842 24.695-4.39 3.018-10.975 1.371-21.402-1.372-10.426-2.744-3.292-9.878-7.133-15.091-3.567-5.214-9.878-1.372-9.878-1.372s1.372 11.249.549 17.56c-.823 6.311-15.64 1.098-20.853-4.664-5.214-5.762-3.842-1.921-8.506-20.03-4.665-18.109-2.47-15.365 1.921-31.005 4.39-15.64 22.224-44.175 22.224-44.175s-5.213-32.377-5.213-47.743c0-15.365-4.116-33.748 10.152-72.436 14.268-38.688 53.779-125.392 73.26-142.678 19.207-17.286 34.572-7.134 34.572-7.134 29.633-60.089 96.856-129.233 96.856-129.233s0-34.572 31.554-71.339c31.554-36.493 81.217-41.706 84.509-41.706 3.293 0 12.347-46.919 12.347-46.919l57.895-10.427c-5.488-8.231-14.268-46.37 24.145-62.559 38.414-15.914 67.224 12.896 67.224 12.896l-10.153 8.781s6.037 2.743 6.586 7.408c.823 4.664-4.665 7.957-4.665 7.957l10.701 8.78s5.213-2.744 13.993 0c8.781 2.744 22.225 8.78 22.225 8.78s.823 8.232 29.908.823c29.084-7.408 59.54 1.921 63.656 3.019 4.116 1.097 65.577-34.298 78.199-40.609 12.621-6.311 28.261-13.719 32.377-23.048 4.39-9.603 21.127-33.474 34.571-44.998 13.72-11.25 31.554-17.561 34.572-3.018 2.901 13.975 39.757 51.009 45.306 55.824l.242.149c11.798 7.409 20.853 24.695 24.42 46.645 3.566 21.95 0 21.95 0 21.95s-13.171 24.695-30.731 37.042c-17.56 12.621-56.248 34.846-59.266 35.395-8.506 1.372 4.115-12.622 4.115-30.182 0-17.835-4.664-27.164-4.664-27.164l8.78-4.664s2.47 2.195 6.311 11.524c3.841 9.329 1.646 38.962 1.646 38.962s4.665-3.567 6.86-8.78c2.195-5.213 2.195-13.994 1.097-26.615-1.097-12.622-4.116-20.304-4.116-20.304l8.232-4.665c12.347 11.524 8.78 45.273 8.78 45.273 5.762-9.329 6.86-14.542 6.311-29.633-.549-15.091-4.116-23.322-4.116-23.322l6.86-4.116c9.877 13.444 8.505 39.511 11.524 37.316 3.018-1.921 15.091-21.676 18.657-37.316 3.567-15.64.549-16.737-4.115-29.633-3.801-10.508-13.795-19.012-17.366-21.801zm-10.177 324.146c3.194.097 9.159 1.394 9.159 1.394s24.695 23.871 28.536 30.731c3.841 6.859 1.097 6.311-4.116 12.073-5.213 5.762-10.426 7.408-20.578 13.17s-12.622 14.268-14.268 15.365c-1.646 1.098 41.157 16.463 53.23 17.012 10.417.473 24.103-24.181 27.66-30.951l.573-1.103c-3.204 6.316-30.892 60.619-38.385 65.528-7.957 5.213-60.09 9.329-90.272 4.665-30.182-4.665-69.692-5.214-77.649-13.171-7.957-7.957-4.116-18.383 1.097-26.34 5.213-7.957 34.846-38.413 35.944-40.06v.549h23.871s-8.506 17.835-8.506 19.481c0 1.646 9.878-4.116 21.128-4.116 11.249 0 23.322 3.293 23.322 3.293s14.268-9.603 26.889-15.365c12.622-5.762 18.933-7.683 28.536-11.524 9.603-3.842 4.116-9.055-.549-16.463-4.664-7.409-25.792-21.128-27.438-23.323-.463-.617.202-.844 1.399-.851l.417.006zm-2.298 24.687c.009-.187.078-.277.208-.245 0 0-.078.086-.208.245-.067 1.389 3.151 8.084 8.713 8.81 9.604 1.097 15.366-2.195 15.366-2.195s-3.567 13.444-18.109 8.231c-13.171-4.97-7.211-13.316-5.97-14.846zm209.286-646.137s-25.518-9.878-60.09-6.311-63.656 6.311-86.43 17.286c-22.773 10.975-89.996 54.602-89.996 54.602s29.907 4.664 52.681 12.621c22.773 7.957 31.828 9.878 31.005 17.286-.823 7.134-26.341 20.03-26.341 20.03l-80.942 53.504 85.332 38.963s60.09-31.006 78.199-38.963c18.109-8.231 49.937-29.084 62.559-23.596 12.621 5.487 16.462 7.134 17.286 22.773.823 15.64-9.878 81.766-9.878 81.766l42.803-24.42s2.744 49.937 10.975 57.345c8.232 7.134 18.11 6.311 20.03-8.231 1.921-14.542-10.975-97.131-10.975-97.131s17.286-6.311 23.597-18.109c6.311-11.798 9.054-21.676 5.487-33.474-3.567-11.799-7.134-26.341-7.134-26.341s56.249-38.962 67.224-49.114c10.975-9.878 6.311-33.474-13.719-25.517-20.03 8.231-182.463 119.904-185.207 119.904-2.744 0-22.774.823-51.858 14.542-29.085 13.719-49.114 23.597-49.114 23.597l-40.06-11.799 420.626-287.002s-14.542-1.92-33.475 4.665c-18.932 6.585-172.585 111.124-172.585 111.124zM976.457 669.124a7.962 7.962 0 017.957 7.957 7.96 7.96 0 01-7.957 7.957 7.96 7.96 0 01-7.957-7.957 7.96 7.96 0 017.957-7.957zm37.864-27.438c12.347-9.603 145.422-104.539 155.3-110.85 9.878-6.31 17.011-7.682 15.639 1.921-1.371 9.603 2.47 11.25-16.462 22.774-18.933 11.249-142.678 96.307-150.91 101.246-8.231 4.939-15.091 5.762-17.011.549-1.647-4.939 5.487-9.329 13.444-15.64zm210.176-93.838l12.621 42.255 12.073-9.604-16.463-40.883-8.231 8.232zm17.835-12.073l11.249 39.237 11.25-5.762-15.091-39.511-7.408 6.036zm16.188-10.701c.549 3.842 11.25 40.334 11.25 40.334l12.621-9.329-15.639-35.944-8.232 4.939zm-52.407-15.365c6.361 0 11.524 5.164 11.524 11.524 0 6.36-5.163 11.524-11.524 11.524-6.36 0-11.524-5.164-11.524-11.524 0-6.36 5.164-11.524 11.524-11.524zm32.103-23.048c6.815 0 12.347 5.533 12.347 12.347 0 6.815-5.532 12.347-12.347 12.347-6.815 0-12.347-5.532-12.347-12.347 0-6.814 5.532-12.347 12.347-12.347zm60.638-41.431s20.03-12.622 28.261-15.64c8.232-3.018 18.109 1.372 22.774 9.329 4.664 7.957 4.39 21.401-4.939 29.633-9.329 8.231-31.554 26.34-31.554 26.34l-14.542-49.662z" fill="#973e37"/></g></svg>