<svg xmlns="http://www.w3.org/2000/svg" xml:space="preserve" fill-rule="evenodd" stroke-linejoin="round" stroke-miterlimit="2" clip-rule="evenodd" viewBox="0 0 2250 2250"><path fill="none" d="M0 0h2250v2250H0z"/><path fill="#f1c413" fill-rule="nonzero" d="M1256.61 1130.24c-12.029 1.265-22.246-.51-30.653-5.325-8.406-4.814-13.513-12.632-15.321-23.455l33.529-3.524c1.081 5.728 3.942 8.348 8.583 7.86 1.705-.179 3.107-.733 4.206-1.663 1.1-.93 1.56-2.247 1.381-3.952-.249-2.367-1.729-4.151-4.441-5.35-2.712-1.2-6.866-2.463-12.464-3.79-6.68-1.596-12.241-3.262-16.685-4.997-4.444-1.736-8.4-4.528-11.869-8.377-3.469-3.849-5.5-9.046-6.092-15.591-.687-6.535.41-12.276 3.289-17.224 2.88-4.947 7.108-8.91 12.684-11.89 5.576-2.98 12.01-4.854 19.303-5.62 12.313-1.294 22.391.519 30.234 5.441 7.843 4.921 12.497 12.524 13.961 22.808l-33.956 3.569c-.393-2.832-1.317-4.794-2.773-5.886-1.455-1.091-3.13-1.538-5.024-1.339-1.326.14-2.368.704-3.126 1.693-.758.99-1.052 2.29-.883 3.9.239 2.273 1.69 4.012 4.355 5.216 2.664 1.204 6.852 2.559 12.565 4.066 6.594 1.701 12.066 3.424 16.415 5.169 4.35 1.746 8.244 4.401 11.683 7.965 3.439 3.565 5.467 8.284 6.084 14.156.647 6.157-.289 11.833-2.807 17.029-2.518 5.197-6.521 9.472-12.01 12.826-5.489 3.354-12.212 5.449-20.168 6.285Zm117.76-115.09 2.628 25.005-26.71 2.808 7.945 75.582-31.541 3.315-7.944-75.582-26.425 2.777-2.628-25.005 84.675-8.9Zm69.68 94.38-22.688-34.1-.142.014 3.793 36.087-31.54 3.315-10.573-100.588 46.884-4.927c8.146-.856 15.259-.144 21.34 2.138 6.082 2.281 10.828 5.757 14.239 10.426 3.412 4.669 5.446 10.129 6.103 16.38.707 6.725-.537 12.888-3.73 18.491-3.194 5.602-8.176 9.909-14.946 12.918l25.926 36.202-34.666 3.644Zm-25.04-55.112 12.502-1.314c3.031-.319 5.232-1.245 6.603-2.777 1.371-1.533 1.902-3.767 1.594-6.703-.279-2.652-1.279-4.654-3.001-6.005s-4.052-1.873-6.988-1.564l-12.502 1.314 1.792 17.049Zm155.68-60.317-28.724 73.834 3.21 30.546-31.54 3.315-3.211-30.546-43.448-66.249 36.087-3.792 19.802 33.972 12.306-37.347 35.518-3.733Zm78.49 93.449-33.851-40.54 4.584 43.616-31.54 3.315-10.572-100.587 31.54-3.315 4.45 42.338 24.391-45.369 35.66-3.748-29.604 51.806 42.449 48.542-37.507 3.942Zm70.07-83.64 1.299 12.36 31.256-3.285 2.494 23.726-31.256 3.285 1.493 14.208 35.518-3.733 2.643 25.146-67.058 7.048-10.572-100.587 67.058-7.048 2.643 25.147-35.518 3.733Zm105.95 65.14-22.688-34.1-.143.015 3.793 36.086-31.54 3.315-10.572-100.587 46.884-4.928c8.145-.856 15.259-.143 21.34 2.138 6.081 2.282 10.828 5.757 14.239 10.426 3.412 4.669 5.446 10.129 6.103 16.38.707 6.725-.537 12.888-3.731 18.491-3.193 5.603-8.175 9.909-14.945 12.919l25.926 36.202-34.666 3.643Zm-25.041-55.112 12.503-1.314c3.031-.319 5.232-1.244 6.603-2.777 1.371-1.533 1.902-3.767 1.594-6.703-.279-2.652-1.28-4.654-3.002-6.005-1.722-1.351-4.051-1.872-6.987-1.564l-12.502 1.314 1.791 17.049Z"/><path fill="#a1352b" fill-rule="nonzero" d="m2250 848.352-64.452-16.915-65.328-15.457 3.5 45.204L2250 848.352Z"/><path fill="#f1c413" d="m448.257 1029.37 1675.45-168.26-1.749-17.411-1675.45 168.26 1.748 17.411Z"/><path fill="#a1352b" fill-rule="nonzero" d="m2117.68 1086.28-64.452-16.624-65.327-15.748 3.499 45.204 126.28-12.832Z"/><path fill="#f1c413" d="m649.581 1233.95 1341.95-134.768-1.749-17.411-1341.95 134.768 1.748 17.411Z"/><path fill="#973e37" fill-rule="nonzero" d="m1713.63 801.408-64.452-16.623-65.327-15.749 3.499 45.204 126.28-12.832Z"/><path fill="#f1c413" d="m739.854 899.18 847.619-85.123-1.748-17.411-847.62 85.123 1.749 17.411Z"/><path fill="#f1c413" fill-rule="nonzero" d="m1676.89 339.389-172.934 24.243 22.627-186.402-55.489 129.027-12.122-205.527-64.109 240.275-44.984-90.507s25.859 132.259 19.125 132.259c-7.004 0-82.965-27.745-82.965-27.745l19.125 165.391 12.121 67.881s408.36 10.505 399.74 5.118c-8.62-5.118-143.572-104.514-143.572-104.514s254.282 34.748 245.662 33.132c-8.62-1.617-259.669-90.508-259.669-90.508l154.077-26.128-140.07-21.011 103.437-44.984Z"/><g fill-rule="nonzero"><path fill="#e84c3d" d="M958.073 1220.36c1.647 2.744 80.943-10.701 121.277 58.718 40.334 69.418 34.023 101.246 34.023 101.246l9.877-1.098 29.085-16.188s14.816 5.213 8.78 78.473c-6.036 73.26-12.073 90.271-48.84 172.037-36.492 81.765-54.876 142.678-54.876 142.678s72.711 52.406 96.308 70.79c23.596 18.383 91.368 38.962 41.431 65.851-49.937 26.89-238.985 0-238.985 0s-57.346-29.359-46.371-95.21c10.975-65.851 49.938-180.542 70.79-204.962 20.853-24.42 49.938-110.85 49.938-110.85l-81.766-90.271-204.962 18.383-170.665-34.023 32.926-139.111 107.008-20.579 82.04-6.31 19.207 2.743s12.621-29.358 22.225-35.943c9.603-6.586 10.7-10.153 19.755-12.073 9.055-1.921 15.091-1.647 24.146-1.098 9.054.549 31.279 7.134 48.016 14.542 16.737 7.683 25.792 15.091 29.359 22.774 3.841 7.408.274 19.481.274 19.481Zm-372.609 435.717s31.828-55.974 69.419-110.85c37.864-54.876 49.937-112.222 49.937-112.222l-137.739 20.853-70.79 109.752-3.567 142.678 32.925 25.518 59.815-75.729ZM762.44 1045.58c12.896-13.445 20.853-24.969 35.121-40.06 14.267-15.091 17.834-21.402 37.864-33.474 20.03-12.073 51.584-31.554 63.656-42.255 12.073-10.701 8.506-7.957 32.103-27.164 23.597-19.206 50.76-36.492 72.985-57.071 22.225-20.853 51.584-47.193 51.584-47.193s6.311 3.566 6.311 22.224-4.939 46.371-4.939 46.371l-10.701 28.535s2.195 20.853 2.744 18.658c.823-2.195 171.488-99.326 171.488-99.326s3.567-17.286 1.372-17.286c-2.196 0-80.12 10.701-80.12 10.701s2.195-42.803-7.957-71.339c0 0 18.658-4.39 32.103-34.297 13.445-29.908 6.311-62.285 6.311-62.285l118.532-89.448 25.792 55.151 11.524-9.878s-9.878-76.552-16.463-106.46c-6.311-29.907-21.127-63.656-21.127-63.656l-178.348 110.85-224.992 149.263-24.42 33.474 51.584 25.792s-6.311 9.329-8.506 9.329c-2.195 0-29.359 17.286-49.389 53.504l-95.758 123.197-38.414 85.607 40.06 28.536ZM504.522 773.668c63.3 0 114.691 51.392 114.691 114.691 0 63.3-51.391 114.692-114.691 114.692-63.3 0-114.691-51.392-114.691-114.692 0-63.299 51.391-114.691 114.691-114.691Z"/><path fill="#f1836a" d="M958.073 1220.36c1.647 2.744 80.943-10.701 121.277 58.718 40.334 69.418 34.023 101.246 34.023 101.246l9.877-1.098 29.085-16.188s14.816 5.213 8.78 78.473c-6.036 73.26-12.073 90.271-48.84 172.037-36.492 81.765-54.876 142.678-54.876 142.678s72.711 52.406 96.308 70.79c23.596 18.383 91.368 38.962 41.431 65.851-49.937 26.89-238.985 0-238.985 0s-57.346-29.359-46.371-95.21c10.975-65.851 49.938-180.542 70.79-204.962 20.853-24.42 49.938-110.85 49.938-110.85l-81.766-90.271-204.962 18.383-170.665-34.023 32.926-139.111 107.008-20.579 82.04-6.31 19.207 2.743s12.621-29.358 22.225-35.943c9.603-6.586 10.7-10.153 19.755-12.073 9.055-1.921 15.091-1.647 24.146-1.098 9.054.549 31.279 7.134 48.016 14.542 16.737 7.683 25.792 15.091 29.359 22.774 3.841 7.408.274 19.481.274 19.481Zm-372.609 435.717s31.828-55.974 69.419-110.85c37.864-54.876 49.937-112.222 49.937-112.222l-137.739 20.853-70.79 109.752-3.567 142.678 32.925 25.518 59.815-75.729ZM762.44 1045.58c12.896-13.445 20.853-24.969 35.121-40.06 14.267-15.091 17.834-21.402 37.864-33.474 20.03-12.073 51.584-31.554 63.656-42.255 12.073-10.701 8.506-7.957 32.103-27.164 23.597-19.206 50.76-36.492 72.985-57.071 22.225-20.853 51.584-47.193 51.584-47.193s6.311 3.566 6.311 22.224-4.939 46.371-4.939 46.371l-10.701 28.535s2.195 20.853 2.744 18.658c.823-2.195 171.488-99.326 171.488-99.326s3.567-17.286 1.372-17.286c-2.196 0-80.12 10.701-80.12 10.701s2.195-42.803-7.957-71.339c0 0 18.658-4.39 32.103-34.297 13.445-29.908 6.311-62.285 6.311-62.285l118.532-89.448 25.792 55.151 11.524-9.878s-9.878-76.552-16.463-106.46c-6.311-29.907-21.127-63.656-21.127-63.656l-178.348 110.85-224.992 149.263-24.42 33.474 51.584 25.792s-6.311 9.329-8.506 9.329c-2.195 0-29.359 17.286-49.389 53.504l-95.758 123.197-38.414 85.607 40.06 28.536ZM504.522 773.668c63.3 0 114.691 51.392 114.691 114.691 0 63.3-51.391 114.692-114.691 114.692-63.3 0-114.691-51.392-114.691-114.692 0-63.299 51.391-114.691 114.691-114.691Z"/><path fill="#973e37" d="M887.752 839.39c-9.65 3.488-22.987 7.976-29.553 12.197-11.25 7.409-14.542 25.243-18.658 43.901-4.116 18.658-9.329 13.445-26.066 24.969-16.738 11.524-24.969 23.048-37.591 53.23-12.621 30.182 2.196 49.937-10.426 71.888-12.347 21.95-119.904 109.477-119.904 109.477l31.279 58.444 36.493 2.195s-28.262 23.048-44.999 34.572c-16.737 11.524-48.016 55.424-48.016 55.424s-1.098 31.28 9.329 43.901c10.426 12.622 34.297 24.146 61.461 21.951 27.164-2.195 23.048-20.853 55.425-33.475 32.377-12.621 49.114-5.213 85.607-1.097 36.492 4.116 40.608-1.921 57.345-4.116 16.737-2.195 103.442-54.327 103.442-54.327l-56.248 59.54 78.198-43.901-32.377 77.101s5.213 14.543 20.853 23.872 47.194 29.358 65.851 32.376c18.933 3.019 32.377 5.214 39.786-5.213 7.408-10.426 5.213-59.54 5.213-59.54s12.347-14.543 24.969-14.543c12.347 0 13.444 14.543 13.444 14.543s-8.231 7.408-15.64 20.853c-7.408 13.444-6.31 26.066-10.426 52.132-4.116 26.066-18.658 72.162-29.084 107.557-10.427 35.67-30.182 64.754-40.609 76.278-10.426 11.25-29.084 21.676-57.345 29.084-28.261 7.134-40.609 36.493-41.706 56.248-1.098 19.756 39.511 30.182 61.461 64.754 21.951 34.572-23.048 65.852-23.048 65.852s85.607 23.871 111.673 24.968c26.066.823 46.096 4.116 60.638-7.408 6.86-5.488-.548-13.993-10.152-21.95 7.957 5.487 15.64 10.7 19.481 13.719 9.329 7.133 62.559 56.248 72.985 82.314 10.427 26.066 23.048 65.851 15.64 71.064-7.408 5.214-26.066 2.195-37.59 6.311-3.567 1.098-43.627 13.994-97.68 31.28H587.659c2.47-1.647 4.665-3.567 6.86-5.214 26.066-20.853 112.77-64.754 112.77-64.754s11.524-34.572 20.853-46.919c9.329-12.347 38.414-49.937 71.888-77.101 33.474-27.163 62.559-35.395 62.559-35.395s3.018-21.95 9.329-35.395c6.31-13.444 41.706-88.625 59.54-125.117 17.561-36.493 9.329-53.23 8.232-84.51-1.098-31.279-11.524-49.114-7.409-69.967 4.116-21.127 17.835-32.377 20.853-39.785 3.293-7.134 0-10.426-3.018-13.445-3.018-3.018-37.59-6.31-53.23-4.115-15.639 1.92-46.096 7.134-71.064 9.329-25.243 2.195-124.295 5.213-124.295 5.213s-3.292 10.426-17.834 23.871c-14.543 13.719-21.951 6.311-21.951 6.311s-20.853 23.871-30.182 36.492c-9.329 12.622-48.016 71.065-48.016 71.065l-7.409-48.017s-38.687 69.967-38.687 72.986c0 3.018 4.115 31.279 5.213 41.705 1.097 10.427-4.116 43.901-4.116 43.901s31.28-35.669 41.706-43.901c10.426-8.505 10.426 4.116 12.622 13.445 2.195 9.329-3.019 10.427-8.232 26.066-5.213 15.64-30.182 83.412-45.821 121.002-15.64 37.59-24.969 30.456-36.493 38.688-11.524 8.231-57.62 55.425-76.278 68.869-18.658 13.445-21.676 44.724-18.658 57.346 3.018 12.621 43.627 36.493 51.035 48.017 7.134 11.524-8.506 7.408-23.048 7.408-5.762 0-13.17.823-20.304 1.921H221.635l18.11-37.591s4.39-13.719 11.524-23.048c7.133-9.329 30.181-43.901 30.181-43.901s16.463-35.395 23.872-52.132c7.408-16.737 0-23.048 0-43.901 0-20.853 0-53.23 10.426-82.314 10.426-29.084 36.493-64.754 56.248-89.722 19.755-25.243 17.835-9.604 37.59-23.048 19.756-13.445 18.658-15.64 15.64-23.872-3.018-8.505-14.542-8.505-19.755-12.621-5.214-4.116-7.134-6.311-3.019-16.737 4.39-10.427 13.719-57.62 17.835-76.278 4.116-18.658 8.231-40.608 18.658-46.919 10.426-6.311 31.279-5.213 31.279-5.213s-9.329-21.951-11.524-36.493c-2.195-14.542-1.097-46.919-1.097-46.919s-1.921-5.213-14.542-26.066c-12.347-20.853-56.248-77.101-66.675-99.052-10.701-21.95-34.572-30.182-34.572-30.182l-103.167 87.802s-3.018 9.055-14.817 41.432c-12.072 32.377-21.401 29.633-43.352 48.565-21.95 18.932-49.937 74.632-49.937 74.632s9.603 2.469 18.109 3.292c8.506.823 20.03 8.506 30.456 26.066 10.427 17.561 2.195 16.738-4.39 18.109-6.585 1.372-22.773-11.798-28.535-15.639-5.762-3.842-8.506-3.567-8.506.823 0 4.39 9.603 47.193 5.213 51.858-4.39 4.939-13.993 3.567-20.03 2.469-6.036-1.097-10.426-12.896-13.17-20.03-2.744-7.133-6.585-5.213-9.054-.823-2.47 4.39.548 21.951-3.842 24.695-4.39 3.018-10.975 1.371-21.402-1.372-10.426-2.744-3.292-9.878-7.133-15.091-3.567-5.214-9.878-1.372-9.878-1.372s1.372 11.249.549 17.56c-.823 6.311-15.64 1.098-20.853-4.664-5.214-5.762-3.842-1.921-8.506-20.03-4.665-18.109-2.47-15.365 1.921-31.005 4.39-15.64 22.224-44.175 22.224-44.175s-5.213-32.377-5.213-47.743c0-15.365-4.116-33.748 10.152-72.436 14.268-38.688 53.779-125.392 73.26-142.678 19.207-17.286 34.572-7.134 34.572-7.134 29.633-60.089 96.856-129.233 96.856-129.233s0-34.572 31.554-71.339c31.554-36.493 81.217-41.706 84.509-41.706 3.293 0 12.347-46.919 12.347-46.919l57.895-10.427c-5.488-8.231-14.268-46.37 24.145-62.559 38.414-15.914 67.224 12.896 67.224 12.896l-10.153 8.781s6.037 2.743 6.586 7.408c.823 4.664-4.665 7.957-4.665 7.957l10.701 8.78s5.213-2.744 13.993 0c8.781 2.744 22.225 8.78 22.225 8.78s.823 8.232 29.908.823c29.084-7.408 59.54 1.921 63.656 3.019 4.116 1.097 65.577-34.298 78.199-40.609 12.621-6.311 28.261-13.719 32.377-23.048 4.39-9.603 21.127-33.474 34.571-44.998 13.72-11.25 31.554-17.561 34.572-3.018 2.901 13.975 39.757 51.009 45.306 55.824l.242.149c11.798 7.409 20.853 24.695 24.42 46.645 3.566 21.95 0 21.95 0 21.95s-13.171 24.695-30.731 37.042c-17.56 12.621-56.248 34.846-59.266 35.395-8.506 1.372 4.115-12.622 4.115-30.182 0-17.835-4.664-27.164-4.664-27.164l8.78-4.664s2.47 2.195 6.311 11.524c3.841 9.329 1.646 38.962 1.646 38.962s4.665-3.567 6.86-8.78c2.195-5.213 2.195-13.994 1.097-26.615-1.097-12.622-4.116-20.304-4.116-20.304l8.232-4.665c12.347 11.524 8.78 45.273 8.78 45.273 5.762-9.329 6.86-14.542 6.311-29.633-.549-15.091-4.116-23.322-4.116-23.322l6.86-4.116c9.877 13.444 8.505 39.511 11.524 37.316 3.018-1.921 15.091-21.676 18.657-37.316 3.567-15.64.549-16.737-4.115-29.633-3.801-10.508-13.795-19.012-17.366-21.801Zm-10.177 324.146c3.194.097 9.159 1.394 9.159 1.394s24.695 23.871 28.536 30.731c3.841 6.859 1.097 6.311-4.116 12.073-5.213 5.762-10.426 7.408-20.578 13.17s-12.622 14.268-14.268 15.365c-1.646 1.098 41.157 16.463 53.23 17.012 10.417.473 24.103-24.181 27.66-30.951l.573-1.103c-3.204 6.316-30.892 60.619-38.385 65.528-7.957 5.213-60.09 9.329-90.272 4.665-30.182-4.665-69.692-5.214-77.649-13.171-7.957-7.957-4.116-18.383 1.097-26.34 5.213-7.957 34.846-38.413 35.944-40.06v.549h23.871s-8.506 17.835-8.506 19.481c0 1.646 9.878-4.116 21.128-4.116 11.249 0 23.322 3.293 23.322 3.293s14.268-9.603 26.889-15.365c12.622-5.762 18.933-7.683 28.536-11.524 9.603-3.842 4.116-9.055-.549-16.463-4.664-7.409-25.792-21.128-27.438-23.323-.463-.617.202-.844 1.399-.851l.417.006Zm-2.298 24.687c.009-.187.078-.277.208-.245 0 0-.078.086-.208.245-.067 1.389 3.151 8.084 8.713 8.81 9.604 1.097 15.366-2.195 15.366-2.195s-3.567 13.444-18.109 8.231c-13.171-4.97-7.211-13.316-5.97-14.846Zm209.286-646.137s-25.518-9.878-60.09-6.311-63.656 6.311-86.43 17.286c-22.773 10.975-89.996 54.602-89.996 54.602s29.907 4.664 52.681 12.621c22.773 7.957 31.828 9.878 31.005 17.286-.823 7.134-26.341 20.03-26.341 20.03l-80.942 53.504 85.332 38.963s60.09-31.006 78.199-38.963c18.109-8.231 49.937-29.084 62.559-23.596 12.621 5.487 16.462 7.134 17.286 22.773.823 15.64-9.878 81.766-9.878 81.766l42.803-24.42s2.744 49.937 10.975 57.345c8.232 7.134 18.11 6.311 20.03-8.231 1.921-14.542-10.975-97.131-10.975-97.131s17.286-6.311 23.597-18.109c6.311-11.798 9.054-21.676 5.487-33.474-3.567-11.799-7.134-26.341-7.134-26.341s56.249-38.962 67.224-49.114c10.975-9.878 6.311-33.474-13.719-25.517-20.03 8.231-182.463 119.904-185.207 119.904-2.744 0-22.774.823-51.858 14.542-29.085 13.719-49.114 23.597-49.114 23.597l-40.06-11.799 420.626-287.002s-14.542-1.92-33.475 4.665c-18.932 6.585-172.585 111.124-172.585 111.124ZM976.457 669.124a7.962 7.962 0 0 1 7.957 7.957 7.96 7.96 0 0 1-7.957 7.957 7.96 7.96 0 0 1-7.957-7.957 7.96 7.96 0 0 1 7.957-7.957Zm37.864-27.438c12.347-9.603 145.422-104.539 155.3-110.85 9.878-6.31 17.011-7.682 15.639 1.921-1.371 9.603 2.47 11.25-16.462 22.774-18.933 11.249-142.678 96.307-150.91 101.246-8.231 4.939-15.091 5.762-17.011.549-1.647-4.939 5.487-9.329 13.444-15.64Zm210.176-93.838 12.621 42.255 12.073-9.604-16.463-40.883-8.231 8.232Zm17.835-12.073 11.249 39.237 11.25-5.762-15.091-39.511-7.408 6.036Zm16.188-10.701c.549 3.842 11.25 40.334 11.25 40.334l12.621-9.329-15.639-35.944-8.232 4.939Zm-52.407-15.365c6.361 0 11.524 5.164 11.524 11.524 0 6.36-5.163 11.524-11.524 11.524-6.36 0-11.524-5.164-11.524-11.524 0-6.36 5.164-11.524 11.524-11.524Zm32.103-23.048c6.815 0 12.347 5.533 12.347 12.347 0 6.815-5.532 12.347-12.347 12.347-6.815 0-12.347-5.532-12.347-12.347 0-6.814 5.532-12.347 12.347-12.347Zm60.638-41.431s20.03-12.622 28.261-15.64c8.232-3.018 18.109 1.372 22.774 9.329 4.664 7.957 4.39 21.401-4.939 29.633-9.329 8.231-31.554 26.34-31.554 26.34l-14.542-49.662Z"/></g><path fill="#f1c413" fill-rule="nonzero" d="m1254.56 1257.1-18.44-20.79 2.362 22.479-14.258 1.499-5.39-51.287 14.258-1.498 2.324 22.115 13.608-23.79 16.44-1.728-16.226 26.86 22.563 24.327-17.241 1.813Zm31.34-55.15 5.391 51.286-14.259 1.499-5.39-51.287 14.258-1.498Zm26.65 38.02 15.932-1.674 1.147 10.912-30.19 3.173-5.391-51.287 14.259-1.498 4.243 40.374Zm35.72-3.75 15.932-1.674 1.147 10.912-30.191 3.173-5.39-51.287 14.258-1.499 4.244 40.375Zm69.74-48.15 1.193 11.349-13.676 1.437 4.197 39.939-14.258 1.498-4.198-39.938-13.531 1.422-1.193-11.348 41.466-4.359Zm51.22-5.39 5.391 51.286-14.259 1.499-2.164-20.587-17.386 1.827 2.164 20.587-14.259 1.499-5.39-51.287 14.258-1.498 2.026 19.278 17.387-1.828-2.026-19.278 14.258-1.498Zm23.6 9.07.879 8.366 16.368-1.721 1.14 10.84-16.369 1.72.971 9.239 18.551-1.95 1.2 11.422-32.809 3.448-5.39-51.287 32.809-3.448 1.2 11.421-18.55 1.95Zm98.17-21.87 5.391 51.287-14.259 1.498-2.974-28.298-6.701 29.315-11.931 1.254-12.745-27.492 2.997 28.517-14.258 1.499-5.391-51.287 17.241-1.812 16.378 31.965 9.084-34.641 17.168-1.805Zm22.12-2.32 3.127 29.753c.291 2.765 1.158 4.831 2.601 6.199 1.443 1.369 3.474 1.915 6.093 1.64 2.619-.275 4.515-1.247 5.688-2.915 1.173-1.667 1.617-3.859 1.332-6.575l-3.127-29.754 14.258-1.498 3.127 29.753c.495 4.704-.078 8.822-1.717 12.353-1.639 3.531-4.08 6.313-7.324 8.346-3.243 2.032-6.95 3.268-11.121 3.706-4.171.439-7.981-.007-11.43-1.336-3.45-1.329-6.281-3.544-8.495-6.646-2.214-3.102-3.571-7.029-4.07-11.782l-3.127-29.753 14.185-1.491Zm76.46-8.03 1.193 11.348-13.676 1.438 4.197 39.938-14.258 1.499-4.198-39.939-13.531 1.423-1.192-11.349 41.465-4.358Zm42.26 38.95-18.186 1.912-1.885 8.656-14.986 1.575 13.305-53.251 16.441-1.728 24.014 49.329-15.059 1.583-3.644-8.076Zm-4.711-10.537-7.272-16.005-3.713 17.159 10.985-1.154Zm75.581 11.547-14.259 1.498-21.999-26.666 3.012 28.662-14.258 1.499-5.391-51.287 14.259-1.499 22.037 27.031-3.05-29.026 14.258-1.499 5.391 51.287Zm41.38-56.2 1.193 11.348-13.676 1.438 4.197 39.938-14.258 1.498-4.198-39.938-13.531 1.422-1.192-11.348 41.465-4.358Zm30.11 49.2c-5.966.627-11.013-.277-15.142-2.712-4.13-2.434-6.618-6.279-7.465-11.535l15.204-1.598c.335 1.779 1.006 3.033 2.014 3.76 1.008.728 2.239 1.015 3.694.862 1.31-.137 2.355-.578 3.134-1.322.78-.744 1.109-1.698.987-2.862-.158-1.503-.984-2.593-2.477-3.27-1.493-.677-3.869-1.359-7.129-2.046-3.463-.763-6.281-1.558-8.451-2.384-2.171-.826-4.126-2.166-5.865-4.018-1.739-1.852-2.78-4.403-3.121-7.652-.347-3.298.181-6.209 1.582-8.735 1.402-2.525 3.494-4.547 6.277-6.066 2.782-1.518 6.016-2.471 9.702-2.858 5.965-.627 10.877.266 14.734 2.68 3.858 2.414 6.173 6.131 6.946 11.149l-15.495 1.628c-.212-1.546-.807-2.661-1.786-3.342-.979-.682-2.171-.949-3.578-.801-1.067.112-1.906.519-2.519 1.221-.613.702-.858 1.635-.736 2.799.102.97.566 1.767 1.392 2.391.825.624 1.823 1.132 2.992 1.524 1.169.392 2.885.861 5.149 1.408 3.367.774 6.162 1.596 8.386 2.465 2.225.87 4.204 2.206 5.938 4.01 1.734 1.803 2.759 4.209 3.075 7.216.322 3.055-.154 5.875-1.427 8.461-1.273 2.585-3.278 4.733-6.016 6.443-2.738 1.709-6.071 2.771-9.999 3.184Z"/></svg>
