<svg clip-rule="evenodd" fill-rule="evenodd" stroke-linejoin="round" stroke-miterlimit="2" viewBox="0 0 990 815" xmlns="http://www.w3.org/2000/svg"><path d="m0 0h989.58v814.58h-989.58z" fill="none"/><g fill-rule="nonzero"><path d="m846.2 238.66-172.95 24.24 22.63-186.4-55.5 129.03-12.1-205.53-64.1 240.28-44.99-90.51s25.86 132.26 19.13 132.26c-7 0-82.97-27.75-82.97-27.75l19.13 165.4 12.12 67.87s408.36 10.5 399.74 5.12c-8.62-5.12-143.57-104.51-143.57-104.51s254.28 34.75 245.66 33.13-259.67-90.5-259.67-90.5l154.08-26.14-140.07-21 103.43-45z" fill="#f1c413"/><path d="m231.3 568.4s37.28 15.9 0 129.23c0 0 6.31 3.56 6.31 22.22s-4.94 46.37-4.94 46.37l-10.7 28.54s2.2 20.85 2.75 18.66c.82-2.2 171.49-99.33 171.49-99.33s3.56-17.29 1.37-17.29c-2.2 0-80.12 10.7-80.12 10.7s2.2-42.8-7.96-71.33c0 0 18.66-4.4 32.1-34.3 13.45-29.9 6.32-62.29 6.32-62.29l118.53-89.44 25.79 55.15 11.52-9.88s-9.87-76.55-16.46-106.46c-6.31-29.9-21.13-63.66-21.13-63.66l-178.35 110.85-224.99 149.27-24.42 33.47 47.42 23.7z" fill="#f1836a"/><path d="m260.11 441.36s-25.51-9.88-60.09-6.32-63.65 6.32-86.43 17.3c-22.77 10.97-90 54.6-90 54.6s29.91 4.66 52.69 12.61c22.77 7.96 31.83 9.88 31 17.29-.82 7.13-26.34 20.03-26.34 20.03l-80.94 53.5 85.33 38.97s60.1-31 78.2-38.97c18.11-8.23 49.94-29.08 62.56-23.6 12.62 5.5 16.46 7.14 17.29 22.78.82 15.64-9.88 81.77-9.88 81.77l42.8-24.42s2.74 49.93 10.98 57.34c8.23 7.14 18.1 6.31 20.03-8.23 1.92-14.54-10.98-97.13-10.98-97.13s17.29-6.31 23.6-18.1c6.3-11.8 9.05-21.68 5.49-33.48-3.57-11.8-7.14-26.34-7.14-26.34s56.25-38.97 67.22-49.12c10.98-9.88 6.32-33.47-13.71-25.52-20.03 8.24-182.47 119.9-185.21 119.9-2.75 0-22.78.83-51.86 14.55s-49.11 23.6-49.11 23.6l-40.06-11.8 420.62-287s-14.54-1.92-33.47 4.66c-18.93 6.59-172.59 111.13-172.59 111.13zm-108.1 127.03a7.96 7.96 0 0 1 7.95 7.96 7.96 7.96 0 0 1 -7.95 7.96 7.96 7.96 0 0 1 -7.96-7.96 7.96 7.96 0 0 1 7.96-7.96zm37.86-27.43c12.35-9.6 145.42-104.54 155.3-110.85 9.88-6.32 17.01-7.69 15.64 1.92-1.37 9.6 2.47 11.25-16.46 22.77-18.93 11.25-142.68 96.3-150.91 101.25-8.23 4.94-15.1 5.76-17.01.55-1.65-4.94 5.48-9.33 13.44-15.64zm210.18-93.84 12.62 42.25 12.07-9.6-16.46-40.88zm17.83-12.07 11.25 39.23 11.25-5.76-15.08-39.52-7.4 6.04zm16.19-10.7c.55 3.84 11.25 40.33 11.25 40.33l12.62-9.33-15.64-35.94-8.23 4.93zm-52.4-15.37a11.53 11.53 0 1 1 -.02 23.06 11.53 11.53 0 0 1 .01-23.06zm32.1-23.05a12.35 12.35 0 1 1 -.01 24.7 12.35 12.35 0 0 1 0-24.7zm60.63-41.43s20.03-12.62 28.26-15.64c8.24-3.02 18.11 1.37 22.78 9.33 4.66 7.96 4.39 21.4-4.94 29.63s-31.55 26.34-31.55 26.34z" fill="#973e37"/></g></svg>