<?xml version="1.0" standalone="no"?>
<!DOCTYPE svg PUBLIC "-//W3C//DTD SVG 20010904//EN"
 "http://www.w3.org/TR/2001/REC-SVG-20010904/DTD/svg10.dtd">
<svg version="1.0" xmlns="http://www.w3.org/2000/svg"
 width="700.000000pt" height="700.000000pt" viewBox="0 0 700.000000 700.000000"
 preserveAspectRatio="xMidYMid meet">
<metadata>
Created by potrace 1.11, written by Peter Selinger 2001-2013
</metadata>
<g transform="translate(0.000000,700.000000) scale(0.100000,-0.100000)"
fill="#000000" stroke="none">
<path d="M3285 6990 c-875 -61 -1646 -409 -2255 -1019 -583 -584 -925 -1308
-1011 -2141 -16 -148 -16 -512 0 -660 119 -1167 776 -2167 1795 -2733 989
-550 2228 -577 3237 -71 360 180 633 377 920 663 284 285 483 560 658 910 181
361 299 758 347 1166 20 171 22 559 5 730 -45 432 -153 814 -341 1200 -176
360 -380 645 -670 936 -571 572 -1288 916 -2090 1003 -176 20 -444 27 -595 16z
m619 -831 c462 -57 789 -249 1053 -617 81 -113 259 -462 242 -475 -8 -7 -791
-278 -793 -275 -1 2 -24 56 -50 120 -96 233 -230 387 -395 452 -161 63 -445
70 -637 16 -101 -29 -211 -88 -270 -145 -96 -94 -135 -209 -135 -400 0 -203
37 -311 145 -423 118 -123 302 -225 674 -373 574 -229 858 -401 1064 -646 215
-255 323 -537 347 -905 32 -474 -107 -856 -429 -1179 -313 -314 -732 -478
-1223 -479 -321 0 -593 56 -847 176 -302 143 -558 398 -716 714 -51 102 -138
329 -129 338 3 3 177 70 387 149 283 106 384 140 390 130 4 -6 17 -41 29 -77
106 -315 244 -484 479 -584 210 -89 507 -100 732 -25 217 71 359 224 415 444
27 107 24 370 -5 489 -54 216 -191 370 -437 493 -97 49 -315 144 -565 248
-489 203 -784 416 -972 705 -219 335 -276 795 -147 1198 171 533 653 881 1304
941 112 11 365 5 489 -10z"/>
</g>
</svg>
