<svg height="700pt" preserveAspectRatio="xMidYMid meet" viewBox="0 0 700 700" width="700pt" xmlns="http://www.w3.org/2000/svg"><path d="m3350 6994c-542-36-941-138-1385-354-529-258-973-636-1322-1125-512-718-730-1631-602-2520 136-945 654-1788 1444-2352 717-512 1641-732 2527-603 1127 165 2103 873 2618 1900 180 359 298 757 346 1165 20 172 23 561 5 730-86 827-430 1553-1011 2136-575 576-1319 929-2125 1008-115 11-414 20-495 15zm425-824c240-17 427-59 593-132 299-131 560-393 726-728 60-120 111-239 105-244-9-7-790-278-793-275-1 2-24 57-50 121-96 233-230 387-395 452-162 63-456 70-639 15-225-69-345-181-388-365-19-84-19-270 0-362 49-235 250-393 755-594 573-228 821-368 1043-589 205-205 352-497 398-794 6-38 15-129 20-202 31-458-112-845-430-1164-315-316-733-479-1228-479-526 0-938 156-1258 474-132 132-212 243-296 411-51 101-142 334-134 342 2 3 177 69 387 149 279 104 385 140 391 131 4-7 17-41 29-77 97-292 225-458 431-559 112-56 179-75 302-91 223-28 451 8 612 97 81 44 186 157 227 243 59 122 72 191 71 380-1 278-50 417-199 565-127 126-229 179-765 405-146 61-312 136-370 167-595 314-871 731-873 1318-1 247 43 437 146 639 187 366 560 629 1014 716 186 35 362 45 568 30z" transform="matrix(.1 0 0 -.1 0 700)"/></svg>